<svg width="19" height="19" viewBox="0 0 19 19" fill="none" xmlns="http://www.w3.org/2000/svg">
<path d="M19 9.5C19 14.7467 14.7467 19 9.5 19C4.25329 19 0 14.7467 0 9.5C0 4.25329 4.25329 0 9.5 0C14.7467 0 19 4.25329 19 9.5ZM1.95704 9.5C1.95704 13.6659 5.33414 17.043 9.5 17.043C13.6659 17.043 17.043 13.6659 17.043 9.5C17.043 5.33414 13.6659 1.95704 9.5 1.95704C5.33414 1.95704 1.95704 5.33414 1.95704 9.5Z" fill="#828282"/>
<path d="M13.8011 10.5739L7 13.7159V11.951L11.8324 9.87784L11.7777 9.9723V9.74361L11.8324 9.83807L7 7.76491V6L13.8011 9.14205V10.5739Z" fill="#828282"/>
</svg>
