<svg width="1641" height="184" viewBox="0 0 1641 184" fill="none" xmlns="http://www.w3.org/2000/svg">
<g clip-path="url(#clip0_13_386)">
<rect x="1" y="1" width="1639" height="182" rx="40" fill="white"/>
<rect x="-359.5" y="105.5" width="493" height="11" rx="5.5" fill="#FED3FF"/>
<rect x="-359.5" y="105.5" width="493" height="11" rx="5.5" stroke="#333333"/>
<rect x="158.5" y="105.5" width="493" height="11" rx="5.5" fill="#FFDD64"/>
<rect x="158.5" y="105.5" width="493" height="11" rx="5.5" stroke="#333333"/>
<rect x="1189.5" y="105.5" width="493" height="11" rx="5.5" fill="white"/>
<rect x="1189.5" y="105.5" width="493" height="11" rx="5.5" stroke="#333333"/>
<rect x="1136.5" y="105.5" width="32" height="11" rx="5.5" fill="white"/>
<rect x="1136.5" y="105.5" width="32" height="11" rx="5.5" stroke="#333333"/>
<path d="M908.5 105.5H680C676.962 105.5 674.5 107.962 674.5 111C674.5 114.038 676.962 116.5 680 116.5H908.5V105.5Z" fill="#95B9FF"/>
<path d="M908.5 105.5H680C676.962 105.5 674.5 107.962 674.5 111C674.5 114.038 676.962 116.5 680 116.5H908.5V105.5Z" stroke="#333333"/>
<rect x="674.5" y="105.5" width="439" height="11" rx="5.5" stroke="#333333"/>
<rect x="143.5" y="95.5" width="7" height="30" rx="3.5" fill="#95B9FF" stroke="#333333"/>
<rect x="1175.5" y="94.5" width="7" height="30" fill="white" stroke="#333333"/>
<rect x="1123.5" y="94.5" width="7" height="30" fill="#FFDD64" stroke="#333333"/>
<rect x="410.5" y="95.5" width="7" height="30" fill="#FED3FF" stroke="#333333"/>
<rect x="1457.5" y="95.5" width="7" height="30" fill="#FED3FF" stroke="#333333"/>
<path d="M46.0114 17.3636H49.0455L52.25 25.1818H52.3864L55.5909 17.3636H58.625V29H56.2386V21.4261H56.142L53.1307 28.9432H51.5057L48.4943 21.3977H48.3977V29H46.0114V17.3636ZM63.0952 29.1648C62.5384 29.1648 62.0421 29.0682 61.6065 28.875C61.1709 28.678 60.8262 28.3883 60.5724 28.0057C60.3224 27.6193 60.1974 27.1383 60.1974 26.5625C60.1974 26.0777 60.2865 25.6705 60.4645 25.3409C60.6425 25.0114 60.8849 24.7462 61.1918 24.5455C61.4986 24.3447 61.8471 24.1932 62.2372 24.0909C62.6312 23.9886 63.044 23.9167 63.4759 23.875C63.9834 23.822 64.3925 23.7727 64.7031 23.7273C65.0137 23.678 65.2391 23.6061 65.3793 23.5114C65.5194 23.4167 65.5895 23.2765 65.5895 23.0909V23.0568C65.5895 22.697 65.4759 22.4186 65.2486 22.2216C65.0251 22.0246 64.7069 21.9261 64.294 21.9261C63.8584 21.9261 63.5118 22.0227 63.2543 22.2159C62.9967 22.4053 62.8262 22.6439 62.7429 22.9318L60.5043 22.75C60.6179 22.2197 60.8414 21.7614 61.1747 21.375C61.508 20.9848 61.938 20.6856 62.4645 20.4773C62.9948 20.2652 63.6084 20.1591 64.3054 20.1591C64.7902 20.1591 65.2543 20.2159 65.6974 20.3295C66.1444 20.4432 66.5402 20.6193 66.8849 20.858C67.2334 21.0966 67.508 21.4034 67.7088 21.7784C67.9096 22.1496 68.0099 22.5947 68.0099 23.1136V29H65.7145V27.7898H65.6463C65.5062 28.0625 65.3187 28.303 65.0838 28.5114C64.849 28.7159 64.5668 28.8769 64.2372 28.9943C63.9077 29.108 63.527 29.1648 63.0952 29.1648ZM63.7884 27.4943C64.1444 27.4943 64.4588 27.4242 64.7315 27.2841C65.0043 27.1402 65.2183 26.947 65.3736 26.7045C65.5289 26.4621 65.6065 26.1875 65.6065 25.8807V24.9545C65.5308 25.0038 65.4266 25.0492 65.294 25.0909C65.1652 25.1288 65.0194 25.1648 64.8565 25.1989C64.6937 25.2292 64.5308 25.2576 64.3679 25.2841C64.205 25.3068 64.0573 25.3277 63.9247 25.3466C63.6406 25.3883 63.3925 25.4545 63.1804 25.5455C62.9683 25.6364 62.8035 25.7595 62.6861 25.9148C62.5687 26.0663 62.5099 26.2557 62.5099 26.483C62.5099 26.8125 62.6293 27.0644 62.8679 27.2386C63.1103 27.4091 63.4171 27.4943 63.7884 27.4943ZM71.0696 32.2727C70.7628 32.2727 70.4749 32.2481 70.206 32.1989C69.9408 32.1534 69.7211 32.0947 69.5469 32.0227L70.0923 30.2159C70.3764 30.303 70.6321 30.3504 70.8594 30.358C71.0904 30.3655 71.2893 30.3125 71.456 30.1989C71.6264 30.0852 71.7647 29.892 71.8707 29.6193L72.0128 29.25L68.8821 20.2727H71.4276L73.2344 26.6818H73.3253L75.1491 20.2727H77.7116L74.3196 29.9432C74.1567 30.4129 73.9351 30.822 73.6548 31.1705C73.3783 31.5227 73.0279 31.7936 72.6037 31.983C72.1795 32.1761 71.6681 32.2727 71.0696 32.2727ZM82.6307 29V27.2273L86.7727 23.392C87.125 23.0511 87.4205 22.7443 87.6591 22.4716C87.9015 22.1989 88.0852 21.9318 88.2102 21.6705C88.3352 21.4053 88.3977 21.1193 88.3977 20.8125C88.3977 20.4716 88.3201 20.178 88.1648 19.9318C88.0095 19.6818 87.7973 19.4905 87.5284 19.358C87.2595 19.2216 86.9545 19.1534 86.6136 19.1534C86.2576 19.1534 85.947 19.2254 85.6818 19.3693C85.4167 19.5133 85.2121 19.7197 85.0682 19.9886C84.9242 20.2576 84.8523 20.5777 84.8523 20.9489H82.517C82.517 20.1875 82.6894 19.5265 83.0341 18.9659C83.3788 18.4053 83.8617 17.9716 84.483 17.6648C85.1042 17.358 85.8201 17.2045 86.6307 17.2045C87.464 17.2045 88.1894 17.3523 88.8068 17.6477C89.428 17.9394 89.911 18.3447 90.2557 18.8636C90.6004 19.3826 90.7727 19.9773 90.7727 20.6477C90.7727 21.0871 90.6856 21.5208 90.5114 21.9489C90.3409 22.3769 90.036 22.8523 89.5966 23.375C89.1572 23.8939 88.5379 24.517 87.7386 25.2443L86.0398 26.9091V26.9886H90.9261V29H82.6307ZM97.2713 29.2557C96.294 29.2519 95.4531 29.0114 94.7486 28.5341C94.0478 28.0568 93.508 27.3655 93.1293 26.4602C92.7543 25.5549 92.5687 24.4659 92.5724 23.1932C92.5724 21.9242 92.7599 20.8428 93.1349 19.9489C93.5137 19.0549 94.0535 18.375 94.7543 17.9091C95.4588 17.4394 96.2978 17.2045 97.2713 17.2045C98.2448 17.2045 99.0819 17.4394 99.7827 17.9091C100.487 18.3788 101.029 19.0606 101.408 19.9545C101.786 20.8447 101.974 21.9242 101.97 23.1932C101.97 24.4697 101.781 25.5606 101.402 26.4659C101.027 27.3712 100.489 28.0625 99.7884 28.5398C99.0876 29.017 98.2486 29.2557 97.2713 29.2557ZM97.2713 27.2159C97.938 27.2159 98.4702 26.8807 98.8679 26.2102C99.2656 25.5398 99.4626 24.5341 99.4588 23.1932C99.4588 22.3106 99.3679 21.5758 99.1861 20.9886C99.008 20.4015 98.7543 19.9602 98.4247 19.6648C98.099 19.3693 97.7145 19.2216 97.2713 19.2216C96.6084 19.2216 96.0781 19.553 95.6804 20.2159C95.2827 20.8788 95.0819 21.8712 95.0781 23.1932C95.0781 24.0871 95.1671 24.8333 95.3452 25.4318C95.527 26.0265 95.7827 26.4735 96.1122 26.7727C96.4418 27.0682 96.8281 27.2159 97.2713 27.2159ZM103.724 29V27.2273L107.866 23.392C108.219 23.0511 108.514 22.7443 108.753 22.4716C108.995 22.1989 109.179 21.9318 109.304 21.6705C109.429 21.4053 109.491 21.1193 109.491 20.8125C109.491 20.4716 109.414 20.178 109.259 19.9318C109.103 19.6818 108.891 19.4905 108.622 19.358C108.353 19.2216 108.048 19.1534 107.707 19.1534C107.351 19.1534 107.041 19.2254 106.776 19.3693C106.51 19.5133 106.306 19.7197 106.162 19.9886C106.018 20.2576 105.946 20.5777 105.946 20.9489H103.611C103.611 20.1875 103.783 19.5265 104.128 18.9659C104.473 18.4053 104.955 17.9716 105.577 17.6648C106.198 17.358 106.914 17.2045 107.724 17.2045C108.558 17.2045 109.283 17.3523 109.901 17.6477C110.522 17.9394 111.005 18.3447 111.349 18.8636C111.694 19.3826 111.866 19.9773 111.866 20.6477C111.866 21.0871 111.779 21.5208 111.605 21.9489C111.435 22.3769 111.13 22.8523 110.69 23.375C110.251 23.8939 109.632 24.517 108.832 25.2443L107.134 26.9091V26.9886H112.02V29H103.724ZM113.803 29V27.2273L117.945 23.392C118.297 23.0511 118.592 22.7443 118.831 22.4716C119.073 22.1989 119.257 21.9318 119.382 21.6705C119.507 21.4053 119.57 21.1193 119.57 20.8125C119.57 20.4716 119.492 20.178 119.337 19.9318C119.181 19.6818 118.969 19.4905 118.7 19.358C118.431 19.2216 118.126 19.1534 117.786 19.1534C117.429 19.1534 117.119 19.2254 116.854 19.3693C116.589 19.5133 116.384 19.7197 116.24 19.9886C116.096 20.2576 116.024 20.5777 116.024 20.9489H113.689C113.689 20.1875 113.861 19.5265 114.206 18.9659C114.551 18.4053 115.034 17.9716 115.655 17.6648C116.276 17.358 116.992 17.2045 117.803 17.2045C118.636 17.2045 119.361 17.3523 119.979 17.6477C120.6 17.9394 121.083 18.3447 121.428 18.8636C121.772 19.3826 121.945 19.9773 121.945 20.6477C121.945 21.0871 121.857 21.5208 121.683 21.9489C121.513 22.3769 121.208 22.8523 120.768 23.375C120.329 23.8939 119.71 24.517 118.911 25.2443L117.212 26.9091V26.9886H122.098V29H113.803Z" fill="#333333"/>
<path d="M381.397 17.3636H383.829V25.4773C383.829 26.2273 383.66 26.8788 383.323 27.4318C382.99 27.9848 382.526 28.411 381.931 28.7102C381.336 29.0095 380.645 29.1591 379.857 29.1591C379.156 29.1591 378.52 29.036 377.948 28.7898C377.38 28.5398 376.929 28.161 376.596 27.6534C376.263 27.142 376.098 26.5 376.102 25.7273H378.55C378.558 26.0341 378.621 26.2973 378.738 26.517C378.859 26.733 379.024 26.8996 379.232 27.017C379.444 27.1307 379.694 27.1875 379.982 27.1875C380.285 27.1875 380.541 27.1231 380.749 26.9943C380.961 26.8617 381.122 26.6686 381.232 26.4148C381.342 26.161 381.397 25.8485 381.397 25.4773V17.3636ZM391.414 25.2841V20.2727H393.835V29H391.511V27.4148H391.42C391.223 27.9261 390.895 28.3371 390.437 28.6477C389.982 28.9583 389.427 29.1136 388.772 29.1136C388.189 29.1136 387.675 28.9811 387.232 28.7159C386.789 28.4508 386.442 28.0739 386.192 27.5852C385.946 27.0966 385.821 26.5114 385.817 25.8295V20.2727H388.238V25.3977C388.242 25.9129 388.38 26.3201 388.653 26.6193C388.925 26.9186 389.291 27.0682 389.749 27.0682C390.041 27.0682 390.314 27.0019 390.567 26.8693C390.821 26.733 391.026 26.5322 391.181 26.267C391.34 26.0019 391.418 25.6742 391.414 25.2841ZM398.191 23.9545V29H395.771V20.2727H398.077V21.8125H398.18C398.373 21.3049 398.697 20.9034 399.151 20.608C399.606 20.3087 400.157 20.1591 400.805 20.1591C401.411 20.1591 401.939 20.2917 402.39 20.5568C402.841 20.822 403.191 21.2008 403.441 21.6932C403.691 22.1818 403.816 22.7652 403.816 23.4432V29H401.396V23.875C401.399 23.3409 401.263 22.9242 400.987 22.625C400.71 22.322 400.329 22.1705 399.844 22.1705C399.519 22.1705 399.231 22.2405 398.981 22.3807C398.735 22.5208 398.541 22.7254 398.401 22.9943C398.265 23.2595 398.195 23.5795 398.191 23.9545ZM409.701 29.1705C408.803 29.1705 408.031 28.9886 407.383 28.625C406.739 28.2576 406.243 27.7386 405.894 27.0682C405.546 26.3939 405.371 25.5966 405.371 24.6761C405.371 23.7784 405.546 22.9905 405.894 22.3125C406.243 21.6345 406.733 21.1061 407.366 20.7273C408.002 20.3485 408.748 20.1591 409.604 20.1591C410.18 20.1591 410.716 20.2519 411.212 20.4375C411.712 20.6193 412.148 20.8939 412.519 21.2614C412.894 21.6288 413.186 22.0909 413.394 22.6477C413.603 23.2008 413.707 23.8485 413.707 24.5909V25.2557H406.337V23.7557H411.428C411.428 23.4072 411.353 23.0985 411.201 22.8295C411.049 22.5606 410.839 22.3504 410.57 22.1989C410.305 22.0436 409.996 21.9659 409.644 21.9659C409.277 21.9659 408.951 22.0511 408.667 22.2216C408.387 22.3883 408.167 22.6136 408.008 22.8977C407.849 23.178 407.767 23.4905 407.763 23.8352V25.2614C407.763 25.6932 407.843 26.0663 408.002 26.3807C408.165 26.6951 408.394 26.9375 408.69 27.108C408.985 27.2784 409.335 27.3636 409.741 27.3636C410.01 27.3636 410.256 27.3258 410.479 27.25C410.703 27.1742 410.894 27.0606 411.053 26.9091C411.212 26.7576 411.334 26.572 411.417 26.3523L413.656 26.5C413.542 27.0379 413.309 27.5076 412.957 27.9091C412.608 28.3068 412.157 28.6174 411.604 28.8409C411.055 29.0606 410.421 29.1705 409.701 29.1705ZM418.967 29V27.2273L423.109 23.392C423.461 23.0511 423.756 22.7443 423.995 22.4716C424.237 22.1989 424.421 21.9318 424.546 21.6705C424.671 21.4053 424.734 21.1193 424.734 20.8125C424.734 20.4716 424.656 20.178 424.501 19.9318C424.345 19.6818 424.133 19.4905 423.864 19.358C423.595 19.2216 423.29 19.1534 422.95 19.1534C422.594 19.1534 422.283 19.2254 422.018 19.3693C421.753 19.5133 421.548 19.7197 421.404 19.9886C421.26 20.2576 421.188 20.5777 421.188 20.9489H418.853C418.853 20.1875 419.025 19.5265 419.37 18.9659C419.715 18.4053 420.198 17.9716 420.819 17.6648C421.44 17.358 422.156 17.2045 422.967 17.2045C423.8 17.2045 424.525 17.3523 425.143 17.6477C425.764 17.9394 426.247 18.3447 426.592 18.8636C426.936 19.3826 427.109 19.9773 427.109 20.6477C427.109 21.0871 427.022 21.5208 426.847 21.9489C426.677 22.3769 426.372 22.8523 425.933 23.375C425.493 23.8939 424.874 24.517 424.075 25.2443L422.376 26.9091V26.9886H427.262V29H418.967ZM433.607 29.2557C432.63 29.2519 431.789 29.0114 431.085 28.5341C430.384 28.0568 429.844 27.3655 429.465 26.4602C429.09 25.5549 428.905 24.4659 428.908 23.1932C428.908 21.9242 429.096 20.8428 429.471 19.9489C429.85 19.0549 430.389 18.375 431.09 17.9091C431.795 17.4394 432.634 17.2045 433.607 17.2045C434.581 17.2045 435.418 17.4394 436.119 17.9091C436.823 18.3788 437.365 19.0606 437.744 19.9545C438.122 20.8447 438.31 21.9242 438.306 23.1932C438.306 24.4697 438.117 25.5606 437.738 26.4659C437.363 27.3712 436.825 28.0625 436.124 28.5398C435.424 29.017 434.585 29.2557 433.607 29.2557ZM433.607 27.2159C434.274 27.2159 434.806 26.8807 435.204 26.2102C435.602 25.5398 435.799 24.5341 435.795 23.1932C435.795 22.3106 435.704 21.5758 435.522 20.9886C435.344 20.4015 435.09 19.9602 434.761 19.6648C434.435 19.3693 434.05 19.2216 433.607 19.2216C432.944 19.2216 432.414 19.553 432.016 20.2159C431.619 20.8788 431.418 21.8712 431.414 23.1932C431.414 24.0871 431.503 24.8333 431.681 25.4318C431.863 26.0265 432.119 26.4735 432.448 26.7727C432.778 27.0682 433.164 27.2159 433.607 27.2159ZM440.06 29V27.2273L444.202 23.392C444.555 23.0511 444.85 22.7443 445.089 22.4716C445.331 22.1989 445.515 21.9318 445.64 21.6705C445.765 21.4053 445.827 21.1193 445.827 20.8125C445.827 20.4716 445.75 20.178 445.594 19.9318C445.439 19.6818 445.227 19.4905 444.958 19.358C444.689 19.2216 444.384 19.1534 444.043 19.1534C443.687 19.1534 443.377 19.2254 443.112 19.3693C442.846 19.5133 442.642 19.7197 442.498 19.9886C442.354 20.2576 442.282 20.5777 442.282 20.9489H439.947C439.947 20.1875 440.119 19.5265 440.464 18.9659C440.808 18.4053 441.291 17.9716 441.913 17.6648C442.534 17.358 443.25 17.2045 444.06 17.2045C444.894 17.2045 445.619 17.3523 446.237 17.6477C446.858 17.9394 447.341 18.3447 447.685 18.8636C448.03 19.3826 448.202 19.9773 448.202 20.6477C448.202 21.0871 448.115 21.5208 447.941 21.9489C447.771 22.3769 447.466 22.8523 447.026 23.375C446.587 23.8939 445.968 24.517 445.168 25.2443L443.469 26.9091V26.9886H448.356V29H440.06ZM450.138 29V27.2273L454.281 23.392C454.633 23.0511 454.928 22.7443 455.167 22.4716C455.409 22.1989 455.593 21.9318 455.718 21.6705C455.843 21.4053 455.906 21.1193 455.906 20.8125C455.906 20.4716 455.828 20.178 455.673 19.9318C455.517 19.6818 455.305 19.4905 455.036 19.358C454.767 19.2216 454.462 19.1534 454.121 19.1534C453.765 19.1534 453.455 19.2254 453.19 19.3693C452.924 19.5133 452.72 19.7197 452.576 19.9886C452.432 20.2576 452.36 20.5777 452.36 20.9489H450.025C450.025 20.1875 450.197 19.5265 450.542 18.9659C450.887 18.4053 451.37 17.9716 451.991 17.6648C452.612 17.358 453.328 17.2045 454.138 17.2045C454.972 17.2045 455.697 17.3523 456.315 17.6477C456.936 17.9394 457.419 18.3447 457.763 18.8636C458.108 19.3826 458.281 19.9773 458.281 20.6477C458.281 21.0871 458.193 21.5208 458.019 21.9489C457.849 22.3769 457.544 22.8523 457.104 23.375C456.665 23.8939 456.046 24.517 455.246 25.2443L453.548 26.9091V26.9886H458.434V29H450.138Z" fill="#333333"/>
<path d="M888.288 17.3636H890.719V25.4773C890.719 26.2273 890.551 26.8788 890.214 27.4318C889.88 27.9848 889.416 28.411 888.822 28.7102C888.227 29.0095 887.536 29.1591 886.748 29.1591C886.047 29.1591 885.411 29.036 884.839 28.7898C884.271 28.5398 883.82 28.161 883.487 27.6534C883.153 27.142 882.988 26.5 882.992 25.7273H885.441C885.449 26.0341 885.511 26.2973 885.629 26.517C885.75 26.733 885.915 26.8996 886.123 27.017C886.335 27.1307 886.585 27.1875 886.873 27.1875C887.176 27.1875 887.432 27.1231 887.64 26.9943C887.852 26.8617 888.013 26.6686 888.123 26.4148C888.233 26.161 888.288 25.8485 888.288 25.4773V17.3636ZM898.305 25.2841V20.2727H900.725V29H898.401V27.4148H898.31C898.113 27.9261 897.786 28.3371 897.327 28.6477C896.873 28.9583 896.318 29.1136 895.663 29.1136C895.079 29.1136 894.566 28.9811 894.123 28.7159C893.68 28.4508 893.333 28.0739 893.083 27.5852C892.837 27.0966 892.712 26.5114 892.708 25.8295V20.2727H895.129V25.3977C895.132 25.9129 895.271 26.3201 895.543 26.6193C895.816 26.9186 896.182 27.0682 896.64 27.0682C896.932 27.0682 897.204 27.0019 897.458 26.8693C897.712 26.733 897.916 26.5322 898.072 26.267C898.231 26.0019 898.308 25.6742 898.305 25.2841ZM905.082 17.3636V29H902.661V17.3636H905.082ZM908.515 32.2727C908.208 32.2727 907.92 32.2481 907.651 32.1989C907.386 32.1534 907.166 32.0947 906.992 32.0227L907.538 30.2159C907.822 30.303 908.077 30.3504 908.305 30.358C908.536 30.3655 908.735 30.3125 908.901 30.1989C909.072 30.0852 909.21 29.892 909.316 29.6193L909.458 29.25L906.327 20.2727H908.873L910.68 26.6818H910.771L912.594 20.2727H915.157L911.765 29.9432C911.602 30.4129 911.38 30.822 911.1 31.1705C910.824 31.5227 910.473 31.7936 910.049 31.983C909.625 32.1761 909.113 32.2727 908.515 32.2727ZM920.076 29V27.2273L924.218 23.392C924.57 23.0511 924.866 22.7443 925.104 22.4716C925.347 22.1989 925.531 21.9318 925.656 21.6705C925.781 21.4053 925.843 21.1193 925.843 20.8125C925.843 20.4716 925.765 20.178 925.61 19.9318C925.455 19.6818 925.243 19.4905 924.974 19.358C924.705 19.2216 924.4 19.1534 924.059 19.1534C923.703 19.1534 923.392 19.2254 923.127 19.3693C922.862 19.5133 922.657 19.7197 922.513 19.9886C922.37 20.2576 922.298 20.5777 922.298 20.9489H919.962C919.962 20.1875 920.135 19.5265 920.479 18.9659C920.824 18.4053 921.307 17.9716 921.928 17.6648C922.549 17.358 923.265 17.2045 924.076 17.2045C924.909 17.2045 925.635 17.3523 926.252 17.6477C926.873 17.9394 927.356 18.3447 927.701 18.8636C928.046 19.3826 928.218 19.9773 928.218 20.6477C928.218 21.0871 928.131 21.5208 927.957 21.9489C927.786 22.3769 927.481 22.8523 927.042 23.375C926.603 23.8939 925.983 24.517 925.184 25.2443L923.485 26.9091V26.9886H928.371V29H920.076ZM934.717 29.2557C933.739 29.2519 932.898 29.0114 932.194 28.5341C931.493 28.0568 930.953 27.3655 930.575 26.4602C930.2 25.5549 930.014 24.4659 930.018 23.1932C930.018 21.9242 930.205 20.8428 930.58 19.9489C930.959 19.0549 931.499 18.375 932.2 17.9091C932.904 17.4394 933.743 17.2045 934.717 17.2045C935.69 17.2045 936.527 17.4394 937.228 17.9091C937.933 18.3788 938.474 19.0606 938.853 19.9545C939.232 20.8447 939.419 21.9242 939.415 23.1932C939.415 24.4697 939.226 25.5606 938.847 26.4659C938.472 27.3712 937.934 28.0625 937.234 28.5398C936.533 29.017 935.694 29.2557 934.717 29.2557ZM934.717 27.2159C935.383 27.2159 935.915 26.8807 936.313 26.2102C936.711 25.5398 936.908 24.5341 936.904 23.1932C936.904 22.3106 936.813 21.5758 936.631 20.9886C936.453 20.4015 936.2 19.9602 935.87 19.6648C935.544 19.3693 935.16 19.2216 934.717 19.2216C934.054 19.2216 933.523 19.553 933.126 20.2159C932.728 20.8788 932.527 21.8712 932.523 23.1932C932.523 24.0871 932.612 24.8333 932.79 25.4318C932.972 26.0265 933.228 26.4735 933.558 26.7727C933.887 27.0682 934.273 27.2159 934.717 27.2159ZM941.17 29V27.2273L945.312 23.392C945.664 23.0511 945.96 22.7443 946.198 22.4716C946.441 22.1989 946.624 21.9318 946.749 21.6705C946.874 21.4053 946.937 21.1193 946.937 20.8125C946.937 20.4716 946.859 20.178 946.704 19.9318C946.549 19.6818 946.336 19.4905 946.067 19.358C945.799 19.2216 945.494 19.1534 945.153 19.1534C944.797 19.1534 944.486 19.2254 944.221 19.3693C943.956 19.5133 943.751 19.7197 943.607 19.9886C943.463 20.2576 943.391 20.5777 943.391 20.9489H941.056C941.056 20.1875 941.228 19.5265 941.573 18.9659C941.918 18.4053 942.401 17.9716 943.022 17.6648C943.643 17.358 944.359 17.2045 945.17 17.2045C946.003 17.2045 946.728 17.3523 947.346 17.6477C947.967 17.9394 948.45 18.3447 948.795 18.8636C949.139 19.3826 949.312 19.9773 949.312 20.6477C949.312 21.0871 949.225 21.5208 949.05 21.9489C948.88 22.3769 948.575 22.8523 948.136 23.375C947.696 23.8939 947.077 24.517 946.278 25.2443L944.579 26.9091V26.9886H949.465V29H941.17ZM951.248 29V27.2273L955.39 23.392C955.742 23.0511 956.038 22.7443 956.276 22.4716C956.519 22.1989 956.702 21.9318 956.827 21.6705C956.952 21.4053 957.015 21.1193 957.015 20.8125C957.015 20.4716 956.937 20.178 956.782 19.9318C956.627 19.6818 956.415 19.4905 956.146 19.358C955.877 19.2216 955.572 19.1534 955.231 19.1534C954.875 19.1534 954.564 19.2254 954.299 19.3693C954.034 19.5133 953.829 19.7197 953.685 19.9886C953.541 20.2576 953.469 20.5777 953.469 20.9489H951.134C951.134 20.1875 951.307 19.5265 951.651 18.9659C951.996 18.4053 952.479 17.9716 953.1 17.6648C953.721 17.358 954.437 17.2045 955.248 17.2045C956.081 17.2045 956.807 17.3523 957.424 17.6477C958.045 17.9394 958.528 18.3447 958.873 18.8636C959.218 19.3826 959.39 19.9773 959.39 20.6477C959.39 21.0871 959.303 21.5208 959.129 21.9489C958.958 22.3769 958.653 22.8523 958.214 23.375C957.774 23.8939 957.155 24.517 956.356 25.2443L954.657 26.9091V26.9886H959.543V29H951.248Z" fill="#333333"/>
<path d="M1414.44 29H1411.8L1415.82 17.3636H1418.99L1423 29H1420.37L1417.45 20.0227H1417.36L1414.44 29ZM1414.27 24.4261H1420.5V26.3466H1414.27V24.4261ZM1429.95 25.2841V20.2727H1432.37V29H1430.05V27.4148H1429.96C1429.76 27.9261 1429.43 28.3371 1428.98 28.6477C1428.52 28.9583 1427.97 29.1136 1427.31 29.1136C1426.73 29.1136 1426.21 28.9811 1425.77 28.7159C1425.33 28.4508 1424.98 28.0739 1424.73 27.5852C1424.49 27.0966 1424.36 26.5114 1424.36 25.8295V20.2727H1426.78V25.3977C1426.78 25.9129 1426.92 26.3201 1427.19 26.6193C1427.46 26.9186 1427.83 27.0682 1428.29 27.0682C1428.58 27.0682 1428.85 27.0019 1429.11 26.8693C1429.36 26.733 1429.56 26.5322 1429.72 26.267C1429.88 26.0019 1429.96 25.6742 1429.95 25.2841ZM1438.24 32.4545C1437.46 32.4545 1436.79 32.3466 1436.22 32.1307C1435.67 31.9186 1435.22 31.6288 1434.89 31.2614C1434.57 30.8939 1434.35 30.4811 1434.25 30.0227L1436.49 29.7216C1436.56 29.8958 1436.67 30.0587 1436.82 30.2102C1436.96 30.3617 1437.16 30.483 1437.4 30.5739C1437.65 30.6686 1437.95 30.7159 1438.3 30.7159C1438.82 30.7159 1439.26 30.5871 1439.6 30.3295C1439.94 30.0758 1440.12 29.6496 1440.12 29.0511V27.4545H1440.01C1439.91 27.697 1439.75 27.9261 1439.54 28.142C1439.32 28.358 1439.05 28.5341 1438.72 28.6705C1438.39 28.8068 1437.99 28.875 1437.53 28.875C1436.87 28.875 1436.27 28.7235 1435.74 28.4205C1435.2 28.1136 1434.78 27.6458 1434.46 27.017C1434.14 26.3845 1433.99 25.5852 1433.99 24.6193C1433.99 23.6307 1434.15 22.8049 1434.47 22.142C1434.79 21.4792 1435.22 20.983 1435.75 20.6534C1436.29 20.3239 1436.88 20.1591 1437.52 20.1591C1438.01 20.1591 1438.42 20.2424 1438.75 20.4091C1439.08 20.572 1439.34 20.7765 1439.54 21.0227C1439.75 21.2652 1439.9 21.5038 1440.01 21.7386H1440.11V20.2727H1442.51V29.0852C1442.51 29.8277 1442.33 30.4489 1441.96 30.9489C1441.6 31.4489 1441.1 31.8239 1440.45 32.0739C1439.81 32.3277 1439.07 32.4545 1438.24 32.4545ZM1438.29 27.0568C1438.68 27.0568 1439.01 26.9602 1439.28 26.767C1439.55 26.5701 1439.76 26.2898 1439.91 25.9261C1440.05 25.5587 1440.13 25.1193 1440.13 24.608C1440.13 24.0966 1440.06 23.6534 1439.91 23.2784C1439.77 22.8996 1439.56 22.6061 1439.29 22.3977C1439.01 22.1894 1438.68 22.0852 1438.29 22.0852C1437.89 22.0852 1437.56 22.1932 1437.29 22.4091C1437.01 22.6212 1436.81 22.9167 1436.67 23.2955C1436.53 23.6742 1436.46 24.1117 1436.46 24.608C1436.46 25.1117 1436.53 25.5473 1436.67 25.9148C1436.81 26.2784 1437.02 26.5606 1437.29 26.7614C1437.56 26.9583 1437.89 27.0568 1438.29 27.0568ZM1450.03 25.2841V20.2727H1452.45V29H1450.13V27.4148H1450.04C1449.84 27.9261 1449.51 28.3371 1449.05 28.6477C1448.6 28.9583 1448.04 29.1136 1447.39 29.1136C1446.81 29.1136 1446.29 28.9811 1445.85 28.7159C1445.41 28.4508 1445.06 28.0739 1444.81 27.5852C1444.56 27.0966 1444.44 26.5114 1444.43 25.8295V20.2727H1446.86V25.3977C1446.86 25.9129 1447 26.3201 1447.27 26.6193C1447.54 26.9186 1447.91 27.0682 1448.37 27.0682C1448.66 27.0682 1448.93 27.0019 1449.18 26.8693C1449.44 26.733 1449.64 26.5322 1449.8 26.267C1449.96 26.0019 1450.04 25.6742 1450.03 25.2841ZM1461.65 22.7614L1459.43 22.8977C1459.4 22.7083 1459.31 22.5379 1459.19 22.3864C1459.06 22.2311 1458.9 22.108 1458.69 22.017C1458.49 21.9223 1458.25 21.875 1457.97 21.875C1457.6 21.875 1457.28 21.9545 1457.02 22.1136C1456.77 22.2689 1456.64 22.4773 1456.64 22.7386C1456.64 22.947 1456.72 23.1231 1456.89 23.267C1457.05 23.411 1457.34 23.5265 1457.75 23.6136L1459.33 23.9318C1460.17 24.1061 1460.81 24.3864 1461.22 24.7727C1461.64 25.1591 1461.85 25.6667 1461.85 26.2955C1461.85 26.8674 1461.68 27.3693 1461.34 27.8011C1461.01 28.233 1460.55 28.5701 1459.97 28.8125C1459.39 29.0511 1458.72 29.1705 1457.96 29.1705C1456.81 29.1705 1455.89 28.9299 1455.2 28.4489C1454.52 27.964 1454.12 27.3049 1454 26.4716L1456.38 26.3466C1456.45 26.6989 1456.63 26.9678 1456.9 27.1534C1457.18 27.3352 1457.54 27.4261 1457.97 27.4261C1458.39 27.4261 1458.73 27.3447 1458.99 27.1818C1459.25 27.0152 1459.38 26.8011 1459.39 26.5398C1459.38 26.3201 1459.29 26.1402 1459.11 26C1458.93 25.8561 1458.65 25.7462 1458.27 25.6705L1456.76 25.3693C1455.9 25.1989 1455.27 24.9034 1454.85 24.483C1454.44 24.0625 1454.23 23.5265 1454.23 22.875C1454.23 22.3144 1454.39 21.8314 1454.69 21.4261C1455 21.0208 1455.43 20.7083 1455.98 20.4886C1456.54 20.2689 1457.19 20.1591 1457.93 20.1591C1459.04 20.1591 1459.9 20.392 1460.54 20.858C1461.17 21.3239 1461.54 21.9583 1461.65 22.7614ZM1468.01 20.2727V22.0909H1462.76V20.2727H1468.01ZM1463.95 18.1818H1466.37V26.3182C1466.37 26.5417 1466.41 26.7159 1466.47 26.8409C1466.54 26.9621 1466.64 27.0473 1466.76 27.0966C1466.88 27.1458 1467.03 27.1705 1467.19 27.1705C1467.3 27.1705 1467.42 27.161 1467.53 27.142C1467.64 27.1193 1467.73 27.1023 1467.79 27.0909L1468.17 28.892C1468.05 28.9299 1467.88 28.9735 1467.66 29.0227C1467.44 29.0758 1467.18 29.108 1466.86 29.1193C1466.28 29.142 1465.77 29.0644 1465.33 28.8864C1464.89 28.7083 1464.55 28.4318 1464.31 28.0568C1464.07 27.6818 1463.95 27.2083 1463.95 26.6364V18.1818ZM1473.27 29V27.2273L1477.41 23.392C1477.77 23.0511 1478.06 22.7443 1478.3 22.4716C1478.54 22.1989 1478.73 21.9318 1478.85 21.6705C1478.98 21.4053 1479.04 21.1193 1479.04 20.8125C1479.04 20.4716 1478.96 20.178 1478.81 19.9318C1478.65 19.6818 1478.44 19.4905 1478.17 19.358C1477.9 19.2216 1477.6 19.1534 1477.25 19.1534C1476.9 19.1534 1476.59 19.2254 1476.32 19.3693C1476.06 19.5133 1475.85 19.7197 1475.71 19.9886C1475.56 20.2576 1475.49 20.5777 1475.49 20.9489H1473.16C1473.16 20.1875 1473.33 19.5265 1473.67 18.9659C1474.02 18.4053 1474.5 17.9716 1475.12 17.6648C1475.74 17.358 1476.46 17.2045 1477.27 17.2045C1478.1 17.2045 1478.83 17.3523 1479.45 17.6477C1480.07 17.9394 1480.55 18.3447 1480.9 18.8636C1481.24 19.3826 1481.41 19.9773 1481.41 20.6477C1481.41 21.0871 1481.33 21.5208 1481.15 21.9489C1480.98 22.3769 1480.68 22.8523 1480.24 23.375C1479.8 23.8939 1479.18 24.517 1478.38 25.2443L1476.68 26.9091V26.9886H1481.57V29H1473.27ZM1487.91 29.2557C1486.93 29.2519 1486.09 29.0114 1485.39 28.5341C1484.69 28.0568 1484.15 27.3655 1483.77 26.4602C1483.39 25.5549 1483.21 24.4659 1483.21 23.1932C1483.21 21.9242 1483.4 20.8428 1483.78 19.9489C1484.15 19.0549 1484.69 18.375 1485.39 17.9091C1486.1 17.4394 1486.94 17.2045 1487.91 17.2045C1488.89 17.2045 1489.72 17.4394 1490.42 17.9091C1491.13 18.3788 1491.67 19.0606 1492.05 19.9545C1492.43 20.8447 1492.61 21.9242 1492.61 23.1932C1492.61 24.4697 1492.42 25.5606 1492.04 26.4659C1491.67 27.3712 1491.13 28.0625 1490.43 28.5398C1489.73 29.017 1488.89 29.2557 1487.91 29.2557ZM1487.91 27.2159C1488.58 27.2159 1489.11 26.8807 1489.51 26.2102C1489.91 25.5398 1490.1 24.5341 1490.1 23.1932C1490.1 22.3106 1490.01 21.5758 1489.83 20.9886C1489.65 20.4015 1489.39 19.9602 1489.07 19.6648C1488.74 19.3693 1488.36 19.2216 1487.91 19.2216C1487.25 19.2216 1486.72 19.553 1486.32 20.2159C1485.92 20.8788 1485.72 21.8712 1485.72 23.1932C1485.72 24.0871 1485.81 24.8333 1485.99 25.4318C1486.17 26.0265 1486.42 26.4735 1486.75 26.7727C1487.08 27.0682 1487.47 27.2159 1487.91 27.2159ZM1494.37 29V27.2273L1498.51 23.392C1498.86 23.0511 1499.15 22.7443 1499.39 22.4716C1499.64 22.1989 1499.82 21.9318 1499.94 21.6705C1500.07 21.4053 1500.13 21.1193 1500.13 20.8125C1500.13 20.4716 1500.05 20.178 1499.9 19.9318C1499.74 19.6818 1499.53 19.4905 1499.26 19.358C1498.99 19.2216 1498.69 19.1534 1498.35 19.1534C1497.99 19.1534 1497.68 19.2254 1497.42 19.3693C1497.15 19.5133 1496.95 19.7197 1496.8 19.9886C1496.66 20.2576 1496.59 20.5777 1496.59 20.9489H1494.25C1494.25 20.1875 1494.42 19.5265 1494.77 18.9659C1495.11 18.4053 1495.6 17.9716 1496.22 17.6648C1496.84 17.358 1497.55 17.2045 1498.37 17.2045C1499.2 17.2045 1499.92 17.3523 1500.54 17.6477C1501.16 17.9394 1501.65 18.3447 1501.99 18.8636C1502.33 19.3826 1502.51 19.9773 1502.51 20.6477C1502.51 21.0871 1502.42 21.5208 1502.25 21.9489C1502.08 22.3769 1501.77 22.8523 1501.33 23.375C1500.89 23.8939 1500.27 24.517 1499.47 25.2443L1497.77 26.9091V26.9886H1502.66V29H1494.37ZM1504.44 29V27.2273L1508.59 23.392C1508.94 23.0511 1509.23 22.7443 1509.47 22.4716C1509.71 22.1989 1509.9 21.9318 1510.02 21.6705C1510.15 21.4053 1510.21 21.1193 1510.21 20.8125C1510.21 20.4716 1510.13 20.178 1509.98 19.9318C1509.82 19.6818 1509.61 19.4905 1509.34 19.358C1509.07 19.2216 1508.77 19.1534 1508.43 19.1534C1508.07 19.1534 1507.76 19.2254 1507.49 19.3693C1507.23 19.5133 1507.02 19.7197 1506.88 19.9886C1506.74 20.2576 1506.66 20.5777 1506.66 20.9489H1504.33C1504.33 20.1875 1504.5 19.5265 1504.85 18.9659C1505.19 18.4053 1505.67 17.9716 1506.3 17.6648C1506.92 17.358 1507.63 17.2045 1508.44 17.2045C1509.28 17.2045 1510 17.3523 1510.62 17.6477C1511.24 17.9394 1511.72 18.3447 1512.07 18.8636C1512.41 19.3826 1512.59 19.9773 1512.59 20.6477C1512.59 21.0871 1512.5 21.5208 1512.32 21.9489C1512.15 22.3769 1511.85 22.8523 1511.41 23.375C1510.97 23.8939 1510.35 24.517 1509.55 25.2443L1507.85 26.9091V26.9886H1512.74V29H1504.44Z" fill="#333333"/>
<path d="M670.278 151.438H667.79C667.744 151.116 667.652 150.83 667.511 150.58C667.371 150.326 667.191 150.11 666.972 149.932C666.752 149.754 666.498 149.617 666.21 149.523C665.926 149.428 665.617 149.381 665.284 149.381C664.682 149.381 664.157 149.53 663.71 149.83C663.263 150.125 662.917 150.557 662.67 151.125C662.424 151.689 662.301 152.375 662.301 153.182C662.301 154.011 662.424 154.708 662.67 155.273C662.92 155.837 663.269 156.263 663.716 156.551C664.163 156.839 664.68 156.983 665.267 156.983C665.597 156.983 665.902 156.939 666.182 156.852C666.466 156.765 666.718 156.638 666.938 156.472C667.157 156.301 667.339 156.095 667.483 155.852C667.631 155.61 667.733 155.333 667.79 155.023L670.278 155.034C670.214 155.568 670.053 156.083 669.795 156.58C669.542 157.072 669.199 157.513 668.767 157.903C668.339 158.29 667.828 158.597 667.233 158.824C666.642 159.047 665.973 159.159 665.227 159.159C664.189 159.159 663.261 158.924 662.443 158.455C661.629 157.985 660.985 157.305 660.511 156.415C660.042 155.525 659.807 154.447 659.807 153.182C659.807 151.913 660.045 150.833 660.523 149.943C661 149.053 661.648 148.375 662.466 147.909C663.284 147.439 664.205 147.205 665.227 147.205C665.902 147.205 666.527 147.299 667.102 147.489C667.682 147.678 668.195 147.955 668.642 148.318C669.089 148.678 669.453 149.119 669.733 149.642C670.017 150.165 670.199 150.763 670.278 151.438ZM673.601 162.273C673.294 162.273 673.006 162.248 672.737 162.199C672.472 162.153 672.252 162.095 672.078 162.023L672.624 160.216C672.908 160.303 673.163 160.35 673.391 160.358C673.622 160.366 673.821 160.313 673.987 160.199C674.158 160.085 674.296 159.892 674.402 159.619L674.544 159.25L671.413 150.273H673.959L675.766 156.682H675.857L677.68 150.273H680.243L676.851 159.943C676.688 160.413 676.466 160.822 676.186 161.17C675.91 161.523 675.559 161.794 675.135 161.983C674.711 162.176 674.199 162.273 673.601 162.273ZM685.143 159.17C684.25 159.17 683.481 158.981 682.837 158.602C682.196 158.22 681.704 157.689 681.359 157.011C681.018 156.333 680.848 155.553 680.848 154.67C680.848 153.777 681.02 152.992 681.365 152.318C681.714 151.64 682.208 151.112 682.848 150.733C683.488 150.35 684.25 150.159 685.132 150.159C685.893 150.159 686.56 150.297 687.132 150.574C687.704 150.85 688.157 151.239 688.49 151.739C688.823 152.239 689.007 152.826 689.041 153.5H686.757C686.693 153.064 686.522 152.714 686.246 152.449C685.973 152.18 685.615 152.045 685.172 152.045C684.797 152.045 684.469 152.148 684.189 152.352C683.912 152.553 683.696 152.847 683.541 153.233C683.386 153.619 683.308 154.087 683.308 154.636C683.308 155.193 683.384 155.667 683.536 156.057C683.691 156.447 683.909 156.744 684.189 156.949C684.469 157.153 684.797 157.256 685.172 157.256C685.448 157.256 685.696 157.199 685.916 157.085C686.14 156.972 686.323 156.807 686.467 156.591C686.615 156.371 686.712 156.108 686.757 155.801H689.041C689.003 156.468 688.821 157.055 688.496 157.562C688.174 158.066 687.729 158.46 687.161 158.744C686.592 159.028 685.92 159.17 685.143 159.17ZM693.011 147.364V159H690.591V147.364H693.011ZM698.928 159.17C698.03 159.17 697.257 158.989 696.609 158.625C695.965 158.258 695.469 157.739 695.121 157.068C694.772 156.394 694.598 155.597 694.598 154.676C694.598 153.778 694.772 152.991 695.121 152.312C695.469 151.634 695.96 151.106 696.592 150.727C697.229 150.348 697.975 150.159 698.831 150.159C699.407 150.159 699.943 150.252 700.439 150.438C700.939 150.619 701.375 150.894 701.746 151.261C702.121 151.629 702.412 152.091 702.621 152.648C702.829 153.201 702.933 153.848 702.933 154.591V155.256H695.564V153.756H700.655C700.655 153.407 700.579 153.098 700.428 152.83C700.276 152.561 700.066 152.35 699.797 152.199C699.532 152.044 699.223 151.966 698.871 151.966C698.503 151.966 698.178 152.051 697.893 152.222C697.613 152.388 697.393 152.614 697.234 152.898C697.075 153.178 696.994 153.491 696.99 153.835V155.261C696.99 155.693 697.07 156.066 697.229 156.381C697.392 156.695 697.621 156.938 697.916 157.108C698.212 157.278 698.562 157.364 698.967 157.364C699.236 157.364 699.482 157.326 699.706 157.25C699.929 157.174 700.121 157.061 700.28 156.909C700.439 156.758 700.56 156.572 700.643 156.352L702.882 156.5C702.768 157.038 702.536 157.508 702.183 157.909C701.835 158.307 701.384 158.617 700.831 158.841C700.282 159.061 699.647 159.17 698.928 159.17ZM712.443 159.159C711.64 159.159 710.924 159.011 710.295 158.716C709.67 158.42 709.174 158.013 708.807 157.494C708.439 156.975 708.248 156.381 708.233 155.71H710.619C710.646 156.161 710.835 156.527 711.188 156.807C711.54 157.087 711.958 157.227 712.443 157.227C712.83 157.227 713.17 157.142 713.466 156.972C713.765 156.797 713.998 156.557 714.165 156.25C714.335 155.939 714.42 155.583 714.42 155.182C714.42 154.773 714.333 154.413 714.159 154.102C713.989 153.792 713.752 153.549 713.449 153.375C713.146 153.201 712.799 153.112 712.409 153.108C712.068 153.108 711.737 153.178 711.415 153.318C711.097 153.458 710.848 153.65 710.67 153.892L708.483 153.5L709.034 147.364H716.148V149.375H711.062L710.761 152.29H710.83C711.034 152.002 711.343 151.763 711.756 151.574C712.169 151.384 712.631 151.29 713.142 151.29C713.843 151.29 714.468 151.455 715.017 151.784C715.566 152.114 716 152.566 716.318 153.142C716.636 153.714 716.794 154.373 716.79 155.119C716.794 155.903 716.612 156.6 716.244 157.21C715.881 157.816 715.371 158.294 714.716 158.642C714.064 158.987 713.307 159.159 712.443 159.159ZM723.568 147.364V159H721.108V149.699H721.04L718.375 151.369V149.188L721.256 147.364H723.568Z" fill="#333333"/>
<path d="M154.278 151.438H151.79C151.744 151.116 151.652 150.83 151.511 150.58C151.371 150.326 151.191 150.11 150.972 149.932C150.752 149.754 150.498 149.617 150.21 149.523C149.926 149.428 149.617 149.381 149.284 149.381C148.682 149.381 148.157 149.53 147.71 149.83C147.263 150.125 146.917 150.557 146.67 151.125C146.424 151.689 146.301 152.375 146.301 153.182C146.301 154.011 146.424 154.708 146.67 155.273C146.92 155.837 147.269 156.263 147.716 156.551C148.163 156.839 148.68 156.983 149.267 156.983C149.597 156.983 149.902 156.939 150.182 156.852C150.466 156.765 150.718 156.638 150.938 156.472C151.157 156.301 151.339 156.095 151.483 155.852C151.631 155.61 151.733 155.333 151.79 155.023L154.278 155.034C154.214 155.568 154.053 156.083 153.795 156.58C153.542 157.072 153.199 157.513 152.767 157.903C152.339 158.29 151.828 158.597 151.233 158.824C150.642 159.047 149.973 159.159 149.227 159.159C148.189 159.159 147.261 158.924 146.443 158.455C145.629 157.985 144.985 157.305 144.511 156.415C144.042 155.525 143.807 154.447 143.807 153.182C143.807 151.913 144.045 150.833 144.523 149.943C145 149.053 145.648 148.375 146.466 147.909C147.284 147.439 148.205 147.205 149.227 147.205C149.902 147.205 150.527 147.299 151.102 147.489C151.682 147.678 152.195 147.955 152.642 148.318C153.089 148.678 153.453 149.119 153.733 149.642C154.017 150.165 154.199 150.763 154.278 151.438ZM157.601 162.273C157.294 162.273 157.006 162.248 156.737 162.199C156.472 162.153 156.252 162.095 156.078 162.023L156.624 160.216C156.908 160.303 157.163 160.35 157.391 160.358C157.622 160.366 157.821 160.313 157.987 160.199C158.158 160.085 158.296 159.892 158.402 159.619L158.544 159.25L155.413 150.273H157.959L159.766 156.682H159.857L161.68 150.273H164.243L160.851 159.943C160.688 160.413 160.466 160.822 160.186 161.17C159.91 161.523 159.559 161.794 159.135 161.983C158.711 162.176 158.199 162.273 157.601 162.273ZM169.143 159.17C168.25 159.17 167.481 158.981 166.837 158.602C166.196 158.22 165.704 157.689 165.359 157.011C165.018 156.333 164.848 155.553 164.848 154.67C164.848 153.777 165.02 152.992 165.365 152.318C165.714 151.64 166.208 151.112 166.848 150.733C167.488 150.35 168.25 150.159 169.132 150.159C169.893 150.159 170.56 150.297 171.132 150.574C171.704 150.85 172.157 151.239 172.49 151.739C172.823 152.239 173.007 152.826 173.041 153.5H170.757C170.693 153.064 170.522 152.714 170.246 152.449C169.973 152.18 169.615 152.045 169.172 152.045C168.797 152.045 168.469 152.148 168.189 152.352C167.912 152.553 167.696 152.847 167.541 153.233C167.386 153.619 167.308 154.087 167.308 154.636C167.308 155.193 167.384 155.667 167.536 156.057C167.691 156.447 167.909 156.744 168.189 156.949C168.469 157.153 168.797 157.256 169.172 157.256C169.448 157.256 169.696 157.199 169.916 157.085C170.14 156.972 170.323 156.807 170.467 156.591C170.615 156.371 170.712 156.108 170.757 155.801H173.041C173.003 156.468 172.821 157.055 172.496 157.562C172.174 158.066 171.729 158.46 171.161 158.744C170.592 159.028 169.92 159.17 169.143 159.17ZM177.011 147.364V159H174.591V147.364H177.011ZM182.928 159.17C182.03 159.17 181.257 158.989 180.609 158.625C179.965 158.258 179.469 157.739 179.121 157.068C178.772 156.394 178.598 155.597 178.598 154.676C178.598 153.778 178.772 152.991 179.121 152.312C179.469 151.634 179.96 151.106 180.592 150.727C181.229 150.348 181.975 150.159 182.831 150.159C183.407 150.159 183.943 150.252 184.439 150.438C184.939 150.619 185.375 150.894 185.746 151.261C186.121 151.629 186.412 152.091 186.621 152.648C186.829 153.201 186.933 153.848 186.933 154.591V155.256H179.564V153.756H184.655C184.655 153.407 184.579 153.098 184.428 152.83C184.276 152.561 184.066 152.35 183.797 152.199C183.532 152.044 183.223 151.966 182.871 151.966C182.503 151.966 182.178 152.051 181.893 152.222C181.613 152.388 181.393 152.614 181.234 152.898C181.075 153.178 180.994 153.491 180.99 153.835V155.261C180.99 155.693 181.07 156.066 181.229 156.381C181.392 156.695 181.621 156.938 181.916 157.108C182.212 157.278 182.562 157.364 182.967 157.364C183.236 157.364 183.482 157.326 183.706 157.25C183.929 157.174 184.121 157.061 184.28 156.909C184.439 156.758 184.56 156.572 184.643 156.352L186.882 156.5C186.768 157.038 186.536 157.508 186.183 157.909C185.835 158.307 185.384 158.617 184.831 158.841C184.282 159.061 183.647 159.17 182.928 159.17ZM196.443 159.159C195.64 159.159 194.924 159.011 194.295 158.716C193.67 158.42 193.174 158.013 192.807 157.494C192.439 156.975 192.248 156.381 192.233 155.71H194.619C194.646 156.161 194.835 156.527 195.188 156.807C195.54 157.087 195.958 157.227 196.443 157.227C196.83 157.227 197.17 157.142 197.466 156.972C197.765 156.797 197.998 156.557 198.165 156.25C198.335 155.939 198.42 155.583 198.42 155.182C198.42 154.773 198.333 154.413 198.159 154.102C197.989 153.792 197.752 153.549 197.449 153.375C197.146 153.201 196.799 153.112 196.409 153.108C196.068 153.108 195.737 153.178 195.415 153.318C195.097 153.458 194.848 153.65 194.67 153.892L192.483 153.5L193.034 147.364H200.148V149.375H195.062L194.761 152.29H194.83C195.034 152.002 195.343 151.763 195.756 151.574C196.169 151.384 196.631 151.29 197.142 151.29C197.843 151.29 198.468 151.455 199.017 151.784C199.566 152.114 200 152.566 200.318 153.142C200.636 153.714 200.794 154.373 200.79 155.119C200.794 155.903 200.612 156.6 200.244 157.21C199.881 157.816 199.371 158.294 198.716 158.642C198.064 158.987 197.307 159.159 196.443 159.159ZM207.068 159.256C206.091 159.252 205.25 159.011 204.545 158.534C203.845 158.057 203.305 157.366 202.926 156.46C202.551 155.555 202.366 154.466 202.369 153.193C202.369 151.924 202.557 150.843 202.932 149.949C203.311 149.055 203.85 148.375 204.551 147.909C205.256 147.439 206.095 147.205 207.068 147.205C208.042 147.205 208.879 147.439 209.58 147.909C210.284 148.379 210.826 149.061 211.205 149.955C211.583 150.845 211.771 151.924 211.767 153.193C211.767 154.47 211.578 155.561 211.199 156.466C210.824 157.371 210.286 158.062 209.585 158.54C208.884 159.017 208.045 159.256 207.068 159.256ZM207.068 157.216C207.735 157.216 208.267 156.881 208.665 156.21C209.063 155.54 209.259 154.534 209.256 153.193C209.256 152.311 209.165 151.576 208.983 150.989C208.805 150.402 208.551 149.96 208.222 149.665C207.896 149.369 207.511 149.222 207.068 149.222C206.405 149.222 205.875 149.553 205.477 150.216C205.08 150.879 204.879 151.871 204.875 153.193C204.875 154.087 204.964 154.833 205.142 155.432C205.324 156.027 205.58 156.473 205.909 156.773C206.239 157.068 206.625 157.216 207.068 157.216Z" fill="#333333"/>
<path d="M1186.28 151.438H1183.79C1183.74 151.116 1183.65 150.83 1183.51 150.58C1183.37 150.326 1183.19 150.11 1182.97 149.932C1182.75 149.754 1182.5 149.617 1182.21 149.523C1181.93 149.428 1181.62 149.381 1181.28 149.381C1180.68 149.381 1180.16 149.53 1179.71 149.83C1179.26 150.125 1178.92 150.557 1178.67 151.125C1178.42 151.689 1178.3 152.375 1178.3 153.182C1178.3 154.011 1178.42 154.708 1178.67 155.273C1178.92 155.837 1179.27 156.263 1179.72 156.551C1180.16 156.839 1180.68 156.983 1181.27 156.983C1181.6 156.983 1181.9 156.939 1182.18 156.852C1182.47 156.765 1182.72 156.638 1182.94 156.472C1183.16 156.301 1183.34 156.095 1183.48 155.852C1183.63 155.61 1183.73 155.333 1183.79 155.023L1186.28 155.034C1186.21 155.568 1186.05 156.083 1185.8 156.58C1185.54 157.072 1185.2 157.513 1184.77 157.903C1184.34 158.29 1183.83 158.597 1183.23 158.824C1182.64 159.047 1181.97 159.159 1181.23 159.159C1180.19 159.159 1179.26 158.924 1178.44 158.455C1177.63 157.985 1176.98 157.305 1176.51 156.415C1176.04 155.525 1175.81 154.447 1175.81 153.182C1175.81 151.913 1176.05 150.833 1176.52 149.943C1177 149.053 1177.65 148.375 1178.47 147.909C1179.28 147.439 1180.2 147.205 1181.23 147.205C1181.9 147.205 1182.53 147.299 1183.1 147.489C1183.68 147.678 1184.2 147.955 1184.64 148.318C1185.09 148.678 1185.45 149.119 1185.73 149.642C1186.02 150.165 1186.2 150.763 1186.28 151.438ZM1189.6 162.273C1189.29 162.273 1189.01 162.248 1188.74 162.199C1188.47 162.153 1188.25 162.095 1188.08 162.023L1188.62 160.216C1188.91 160.303 1189.16 160.35 1189.39 160.358C1189.62 160.366 1189.82 160.313 1189.99 160.199C1190.16 160.085 1190.3 159.892 1190.4 159.619L1190.54 159.25L1187.41 150.273H1189.96L1191.77 156.682H1191.86L1193.68 150.273H1196.24L1192.85 159.943C1192.69 160.413 1192.47 160.822 1192.19 161.17C1191.91 161.523 1191.56 161.794 1191.13 161.983C1190.71 162.176 1190.2 162.273 1189.6 162.273ZM1201.14 159.17C1200.25 159.17 1199.48 158.981 1198.84 158.602C1198.2 158.22 1197.7 157.689 1197.36 157.011C1197.02 156.333 1196.85 155.553 1196.85 154.67C1196.85 153.777 1197.02 152.992 1197.37 152.318C1197.71 151.64 1198.21 151.112 1198.85 150.733C1199.49 150.35 1200.25 150.159 1201.13 150.159C1201.89 150.159 1202.56 150.297 1203.13 150.574C1203.7 150.85 1204.16 151.239 1204.49 151.739C1204.82 152.239 1205.01 152.826 1205.04 153.5H1202.76C1202.69 153.064 1202.52 152.714 1202.25 152.449C1201.97 152.18 1201.62 152.045 1201.17 152.045C1200.8 152.045 1200.47 152.148 1200.19 152.352C1199.91 152.553 1199.7 152.847 1199.54 153.233C1199.39 153.619 1199.31 154.087 1199.31 154.636C1199.31 155.193 1199.38 155.667 1199.54 156.057C1199.69 156.447 1199.91 156.744 1200.19 156.949C1200.47 157.153 1200.8 157.256 1201.17 157.256C1201.45 157.256 1201.7 157.199 1201.92 157.085C1202.14 156.972 1202.32 156.807 1202.47 156.591C1202.62 156.371 1202.71 156.108 1202.76 155.801H1205.04C1205 156.468 1204.82 157.055 1204.5 157.562C1204.17 158.066 1203.73 158.46 1203.16 158.744C1202.59 159.028 1201.92 159.17 1201.14 159.17ZM1209.01 147.364V159H1206.59V147.364H1209.01ZM1214.93 159.17C1214.03 159.17 1213.26 158.989 1212.61 158.625C1211.97 158.258 1211.47 157.739 1211.12 157.068C1210.77 156.394 1210.6 155.597 1210.6 154.676C1210.6 153.778 1210.77 152.991 1211.12 152.312C1211.47 151.634 1211.96 151.106 1212.59 150.727C1213.23 150.348 1213.97 150.159 1214.83 150.159C1215.41 150.159 1215.94 150.252 1216.44 150.438C1216.94 150.619 1217.37 150.894 1217.75 151.261C1218.12 151.629 1218.41 152.091 1218.62 152.648C1218.83 153.201 1218.93 153.848 1218.93 154.591V155.256H1211.56V153.756H1216.65C1216.65 153.407 1216.58 153.098 1216.43 152.83C1216.28 152.561 1216.07 152.35 1215.8 152.199C1215.53 152.044 1215.22 151.966 1214.87 151.966C1214.5 151.966 1214.18 152.051 1213.89 152.222C1213.61 152.388 1213.39 152.614 1213.23 152.898C1213.08 153.178 1212.99 153.491 1212.99 153.835V155.261C1212.99 155.693 1213.07 156.066 1213.23 156.381C1213.39 156.695 1213.62 156.938 1213.92 157.108C1214.21 157.278 1214.56 157.364 1214.97 157.364C1215.24 157.364 1215.48 157.326 1215.71 157.25C1215.93 157.174 1216.12 157.061 1216.28 156.909C1216.44 156.758 1216.56 156.572 1216.64 156.352L1218.88 156.5C1218.77 157.038 1218.54 157.508 1218.18 157.909C1217.83 158.307 1217.38 158.617 1216.83 158.841C1216.28 159.061 1215.65 159.17 1214.93 159.17ZM1228.44 159.159C1227.64 159.159 1226.92 159.011 1226.3 158.716C1225.67 158.42 1225.17 158.013 1224.81 157.494C1224.44 156.975 1224.25 156.381 1224.23 155.71H1226.62C1226.65 156.161 1226.84 156.527 1227.19 156.807C1227.54 157.087 1227.96 157.227 1228.44 157.227C1228.83 157.227 1229.17 157.142 1229.47 156.972C1229.77 156.797 1230 156.557 1230.16 156.25C1230.34 155.939 1230.42 155.583 1230.42 155.182C1230.42 154.773 1230.33 154.413 1230.16 154.102C1229.99 153.792 1229.75 153.549 1229.45 153.375C1229.15 153.201 1228.8 153.112 1228.41 153.108C1228.07 153.108 1227.74 153.178 1227.41 153.318C1227.1 153.458 1226.85 153.65 1226.67 153.892L1224.48 153.5L1225.03 147.364H1232.15V149.375H1227.06L1226.76 152.29H1226.83C1227.03 152.002 1227.34 151.763 1227.76 151.574C1228.17 151.384 1228.63 151.29 1229.14 151.29C1229.84 151.29 1230.47 151.455 1231.02 151.784C1231.57 152.114 1232 152.566 1232.32 153.142C1232.64 153.714 1232.79 154.373 1232.79 155.119C1232.79 155.903 1232.61 156.6 1232.24 157.21C1231.88 157.816 1231.37 158.294 1230.72 158.642C1230.06 158.987 1229.31 159.159 1228.44 159.159ZM1234.51 159V157.227L1238.65 153.392C1239 153.051 1239.3 152.744 1239.53 152.472C1239.78 152.199 1239.96 151.932 1240.09 151.67C1240.21 151.405 1240.27 151.119 1240.27 150.812C1240.27 150.472 1240.2 150.178 1240.04 149.932C1239.88 149.682 1239.67 149.491 1239.4 149.358C1239.13 149.222 1238.83 149.153 1238.49 149.153C1238.13 149.153 1237.82 149.225 1237.56 149.369C1237.29 149.513 1237.09 149.72 1236.94 149.989C1236.8 150.258 1236.73 150.578 1236.73 150.949H1234.39C1234.39 150.187 1234.56 149.527 1234.91 148.966C1235.25 148.405 1235.74 147.972 1236.36 147.665C1236.98 147.358 1237.7 147.205 1238.51 147.205C1239.34 147.205 1240.06 147.352 1240.68 147.648C1241.3 147.939 1241.79 148.345 1242.13 148.864C1242.48 149.383 1242.65 149.977 1242.65 150.648C1242.65 151.087 1242.56 151.521 1242.39 151.949C1242.22 152.377 1241.91 152.852 1241.47 153.375C1241.03 153.894 1240.41 154.517 1239.61 155.244L1237.91 156.909V156.989H1242.8V159H1234.51Z" fill="#333333"/>
<path d="M1607.85 159.11L1608.7 158.258H1607.49H1579.5V153.216H1607.49H1608.7L1607.85 152.363L1600.79 145.272L1604.34 141.709L1618.29 155.737L1604.34 169.765L1600.79 166.202L1607.85 159.11Z" fill="white" stroke="black"/>
<path d="M36.1519 159.11L35.3035 158.258H36.5063H64.5V153.216H36.5063H35.3035L36.1519 152.363L43.2072 145.272L39.6621 141.709L25.7053 155.737L39.6621 169.765L43.2072 166.202L36.1519 159.11Z" fill="white" stroke="black"/>
<path d="M413.522 64.0507L413.999 65.5787L414.476 64.0506C415.476 60.8491 418.387 58.5 421.803 58.5C426.048 58.5 429.5 61.9277 429.5 66.2999C429.5 68.4703 428.647 69.9995 427.183 71.7222L414.006 85.2827L400.815 71.7221C399.353 70.0005 398.5 68.4579 398.5 66.2848C398.5 61.9188 401.94 58.5873 406.195 58.5873C409.619 58.5873 412.524 60.8577 413.522 64.0507Z" fill="#FED3FF" stroke="black"/>
<path d="M1110.16 84.7074C1110 84.245 1109.81 83.1606 1110.42 82.5217L1111.8 81.9333C1112.48 81.2608 1114.28 80.3529 1115.42 79.9158C1116.85 79.3694 1123.95 77.8563 1126.64 76.4272C1129.33 74.9981 1133.49 72.7705 1135.05 67.9369C1136.29 64.07 1136.9 63.5236 1136.9 63.5236C1136.64 62.1366 1135.79 59.0431 1134.37 57.7653C1134.39 57.345 1134.54 56.4035 1135.05 56C1135.26 56.2522 1135.84 56.6809 1136.48 56.3783H1136.9L1137.32 56.7566L1136.9 57.1769C1137.27 58.6199 1138.46 61.7331 1140.17 62.6409C1142.32 63.7758 1144.13 66.5919 1142.15 72.8966C1140.07 79.5352 1132.31 84.1189 1128.95 85.2538C1125.59 86.3886 1118.53 88.9525 1112.31 86.1364C1111.34 85.6321 1111.28 85.1809 1110.71 84.883C1110.51 84.7749 1110.32 84.7074 1110.16 84.7074Z" fill="#FFDD64"/>
<path d="M1110.42 82.5217C1109.81 83.1606 1110 84.245 1110.16 84.7074C1110.32 84.7074 1110.51 84.7749 1110.71 84.883M1110.42 82.5217L1111.8 81.9333C1112.48 81.2608 1114.28 80.3529 1115.42 79.9158C1116.85 79.3694 1123.95 77.8563 1126.64 76.4272C1129.33 74.9981 1133.49 72.7705 1135.05 67.9369C1136.29 64.07 1136.9 63.5236 1136.9 63.5236M1110.42 82.5217C1110.64 82.6899 1111.05 83.1942 1110.88 83.8667C1110.71 84.5392 1110.7 84.8245 1110.71 84.883M1136.9 63.5236C1136.64 62.1366 1135.79 59.0431 1134.37 57.7653C1134.39 57.345 1134.54 56.4035 1135.05 56C1135.26 56.2522 1135.84 56.6809 1136.48 56.3783H1136.9L1137.32 56.7566L1136.9 57.1769C1137.27 58.6199 1138.46 61.7331 1140.17 62.6409C1142.32 63.7758 1144.13 66.5919 1142.15 72.8966C1140.07 79.5352 1132.31 84.1189 1128.95 85.2538C1125.59 86.3886 1118.53 88.9525 1112.31 86.1364C1111.34 85.6321 1111.28 85.1809 1110.71 84.883M1136.9 63.5236C1136.98 63.2994 1137.45 62.8091 1138.66 62.6409M1132.15 78.4027C1134.02 77.45 1137.91 73.9894 1139.12 67.9369M1118.11 80.9245C1119.13 80.7844 1120.94 80.3529 1122.35 79.9158" stroke="#212121" stroke-linecap="round"/>
<path d="M1141 66.3771C1141.04 66.5032 1141.09 66.4238 1141.18 66.2925C1141.22 66.2285 1141.19 66.0761 1141.21 66.0003C1141.25 65.8474 1141.13 65.8152 1141.03 65.8986C1140.9 66.0065 1140.96 66.251 1141 66.3771Z" fill="#212121"/>
<path d="M1141.18 66.2925L1140.77 66.0074L1141.18 66.2925ZM1141 66.3771L1140.53 66.5289L1140.53 66.5289L1141 66.3771ZM1141.03 65.8986L1141.34 66.2871L1141.34 66.2871L1141.03 65.8986ZM1141.21 66.0003L1141.7 66.1135L1141.7 66.1135L1141.21 66.0003ZM1140.77 66.0074C1140.74 66.0504 1140.73 66.066 1140.71 66.083C1140.7 66.1082 1140.72 66.0701 1140.77 66.0309C1140.8 66.0085 1140.87 65.9591 1140.99 65.9446C1141.12 65.9276 1141.24 65.9657 1141.33 66.0327C1141.41 66.0891 1141.44 66.1525 1141.46 66.1767C1141.47 66.2045 1141.48 66.2241 1141.48 66.2253L1140.53 66.5289C1140.54 66.5616 1140.55 66.6063 1140.58 66.6534C1140.6 66.6968 1140.65 66.7737 1140.74 66.8384C1140.84 66.9136 1140.97 66.9548 1141.12 66.9361C1141.24 66.92 1141.33 66.8643 1141.37 66.8317C1141.45 66.772 1141.5 66.6973 1141.52 66.6747C1141.54 66.6438 1141.57 66.6003 1141.59 66.5776L1140.77 66.0074ZM1141.48 66.2253C1141.47 66.1999 1141.46 66.1753 1141.46 66.1516C1141.45 66.1271 1141.45 66.1112 1141.45 66.1036C1141.45 66.0941 1141.45 66.1109 1141.44 66.1433C1141.43 66.1808 1141.4 66.2389 1141.34 66.2871L1140.71 65.51C1140.46 65.718 1140.44 66.0163 1140.45 66.1584C1140.46 66.3162 1140.5 66.4599 1140.53 66.5289L1141.48 66.2253ZM1141.34 66.2871C1141.33 66.2992 1141.18 66.4121 1140.97 66.317C1140.85 66.263 1140.77 66.1623 1140.74 66.0609C1140.71 65.9717 1140.72 65.9052 1140.72 65.8871L1141.7 66.1135C1141.74 65.9412 1141.74 65.5671 1141.38 65.4045C1141.09 65.2761 1140.83 65.4145 1140.71 65.51L1141.34 66.2871ZM1141.59 66.5776C1141.66 66.4721 1141.68 66.365 1141.69 66.3098C1141.7 66.2488 1141.7 66.1923 1141.7 66.1584C1141.7 66.1403 1141.7 66.1224 1141.7 66.11C1141.7 66.0959 1141.7 66.0872 1141.7 66.0801C1141.71 66.0589 1141.71 66.0789 1141.7 66.1135L1140.72 65.8871C1140.72 65.9268 1140.71 65.9623 1140.71 65.9881C1140.71 66.0146 1140.71 66.0389 1140.71 66.0577C1140.7 66.0766 1140.7 66.095 1140.7 66.1084C1140.7 66.1235 1140.7 66.1336 1140.7 66.1433C1140.7 66.165 1140.7 66.1633 1140.71 66.1513C1140.71 66.144 1140.71 66.1271 1140.72 66.1046C1140.72 66.0822 1140.74 66.0468 1140.77 66.0074L1141.59 66.5776Z" fill="#212121"/>
<path d="M1141.66 67.5782C1141.67 67.8013 1141.76 67.6366 1141.94 67.3582C1142 67.2629 1142.03 66.9594 1142.07 66.8549C1142.22 66.5003 1142.05 66.465 1141.86 66.6694C1141.63 66.9187 1141.64 67.3551 1141.66 67.5782Z" fill="#212121"/>
<path d="M1141.94 67.3582L1142.36 67.6267L1141.94 67.3582ZM1141.66 67.5782L1141.16 67.6098L1141.16 67.6098L1141.66 67.5782ZM1141.86 66.6694L1141.5 66.3304L1141.5 66.3304L1141.86 66.6694ZM1142.07 66.8549L1141.61 66.6649L1142.07 66.8549ZM1141.52 67.0896C1141.47 67.1656 1141.44 67.2194 1141.41 67.2661C1141.37 67.3194 1141.37 67.3218 1141.38 67.3078C1141.38 67.3051 1141.43 67.2517 1141.52 67.2156C1141.57 67.1949 1141.65 67.1739 1141.75 67.1856C1141.86 67.1979 1141.95 67.2426 1142.01 67.2999C1142.12 67.3966 1142.15 67.5095 1142.15 67.5197C1142.16 67.5469 1142.16 67.5602 1142.16 67.5466L1141.16 67.6098C1141.16 67.6519 1141.17 67.7089 1141.18 67.7687C1141.19 67.8115 1141.23 67.946 1141.35 68.0543C1141.43 68.1174 1141.52 68.1654 1141.64 68.1786C1141.74 68.1912 1141.83 68.1688 1141.89 68.1444C1142 68.1011 1142.07 68.0314 1142.1 68.0047C1142.16 67.9426 1142.21 67.8656 1142.24 67.8167C1142.28 67.7612 1142.32 67.69 1142.36 67.6267L1141.52 67.0896ZM1142.16 67.5466C1142.15 67.4446 1142.15 67.3211 1142.16 67.2052C1142.18 67.0823 1142.21 67.0266 1142.23 67.0085L1141.5 66.3304C1141.28 66.5615 1141.2 66.8486 1141.17 67.062C1141.14 67.2824 1141.15 67.4887 1141.16 67.6098L1142.16 67.5466ZM1142.23 67.0085C1142.25 66.9842 1142.25 66.9931 1142.22 67.0091C1142.21 67.0126 1142.04 67.1027 1141.84 66.9821C1141.62 66.8519 1141.63 66.6359 1141.63 66.6258C1141.63 66.5935 1141.63 66.6011 1141.61 66.6649L1142.53 67.0449C1142.58 66.9315 1142.62 66.8016 1142.63 66.6694C1142.63 66.5592 1142.61 66.2807 1142.35 66.123C1142.1 65.9748 1141.86 66.0722 1141.77 66.1155C1141.66 66.1713 1141.57 66.2525 1141.5 66.3304L1142.23 67.0085ZM1142.36 67.6267C1142.42 67.5338 1142.45 67.4329 1142.46 67.3831C1142.48 67.3211 1142.49 67.256 1142.5 67.2044C1142.51 67.1455 1142.52 67.1063 1142.53 67.0673C1142.54 67.0224 1142.54 67.0243 1142.53 67.0449L1141.61 66.6649C1141.58 66.7378 1141.56 66.8169 1141.55 66.8612C1141.54 66.9114 1141.53 66.9737 1141.52 67.0156C1141.51 67.0648 1141.5 67.0999 1141.5 67.125C1141.49 67.1369 1141.49 67.1405 1141.49 67.1382C1141.49 67.1381 1141.5 67.118 1141.52 67.0896L1142.36 67.6267Z" fill="#212121"/>
<g style="mix-blend-mode:multiply">
<path d="M1110.42 82.5258C1109.81 83.1646 1110 84.249 1110.16 84.7114C1110.32 84.7114 1110.51 84.7789 1110.71 84.887C1110.7 84.8285 1110.71 84.5433 1110.88 83.8708C1111.05 83.1982 1110.64 82.6939 1110.42 82.5258Z" fill="#212121"/>
<path d="M1110.16 84.7114L1109.69 84.8823L1109.81 85.2114H1110.16V84.7114ZM1110.42 82.5258L1110.72 82.1257L1110.36 81.8584L1110.05 82.1819L1110.42 82.5258ZM1110.88 83.8708L1111.36 83.992V83.992L1110.88 83.8708ZM1110.71 84.887L1110.48 85.3293L1111.45 85.8444L1111.2 84.7707L1110.71 84.887ZM1110.63 84.5405C1110.57 84.3591 1110.49 84.0339 1110.5 83.695C1110.51 83.3539 1110.59 83.0646 1110.78 82.8696L1110.05 82.1819C1109.63 82.6258 1109.51 83.1982 1109.5 83.6745C1109.49 84.1531 1109.59 84.6013 1109.69 84.8823L1110.63 84.5405ZM1110.12 82.9258C1110.25 83.0236 1110.5 83.3425 1110.39 83.7495L1111.36 83.992C1111.6 83.054 1111.03 82.3641 1110.72 82.1257L1110.12 82.9258ZM1110.94 84.4448C1110.72 84.327 1110.44 84.2114 1110.16 84.2114V85.2114C1110.19 85.2114 1110.29 85.2308 1110.48 85.3293L1110.94 84.4448ZM1110.39 83.7495C1110.31 84.0975 1110.26 84.3549 1110.23 84.5398C1110.22 84.632 1110.21 84.7107 1110.21 84.7765C1110.21 84.8259 1110.2 84.9155 1110.22 85.0034L1111.2 84.7707C1111.21 84.8293 1111.21 84.8613 1111.21 84.8197C1111.21 84.7945 1111.21 84.7489 1111.22 84.6784C1111.24 84.5379 1111.28 84.3165 1111.36 83.992L1110.39 83.7495Z" fill="#212121"/>
</g>
<path d="M1130.51 82.8362C1130.72 82.6506 1130.47 82.7462 1130.03 82.8985C1129.93 82.9321 1129.54 83.188 1129.45 83.2299C1128.9 83.4718 1129 83.5758 1129.39 83.4851C1129.85 83.3778 1130.29 83.0217 1130.51 82.8362Z" fill="#212121"/>
<path d="M1130.03 82.8985L1129.87 82.4256L1130.03 82.8985ZM1130.51 82.8362L1130.83 83.2152L1130.83 83.2152L1130.51 82.8362ZM1129.39 83.4851L1129.28 82.9981L1129.28 82.9981L1129.39 83.4851ZM1129.45 83.2299L1129.24 82.7725L1129.45 83.2299ZM1130.19 83.3714C1130.44 83.2863 1130.57 83.2408 1130.62 83.2293C1130.64 83.2257 1130.6 83.2372 1130.53 83.2331C1130.51 83.2313 1130.41 83.2235 1130.31 83.1568C1130.17 83.068 1130.09 82.9148 1130.09 82.7475C1130.08 82.622 1130.13 82.5351 1130.15 82.5107C1130.17 82.4773 1130.18 82.4564 1130.19 82.4508C1130.2 82.4388 1130.2 82.4395 1130.18 82.4571L1130.83 83.2152C1130.87 83.1865 1130.91 83.1495 1130.94 83.1079C1130.96 83.0874 1130.99 83.0536 1131.01 83.0093C1131.03 82.9739 1131.09 82.8778 1131.09 82.7449C1131.08 82.5703 1131 82.4114 1130.85 82.3186C1130.74 82.248 1130.64 82.2379 1130.6 82.2353C1130.51 82.2296 1130.44 82.2457 1130.41 82.252C1130.28 82.2799 1130.06 82.3584 1129.87 82.4256L1130.19 83.3714ZM1130.18 82.4571C1129.96 82.6473 1129.61 82.922 1129.28 82.9981L1129.51 83.972C1130.1 83.8336 1130.62 83.3961 1130.83 83.2152L1130.18 82.4571ZM1129.28 82.9981C1129.2 83.0165 1129.17 83.0175 1129.17 83.0175C1129.17 83.0176 1129.18 83.0178 1129.19 83.0199C1129.21 83.022 1129.24 83.027 1129.27 83.0406C1129.33 83.063 1129.53 83.1599 1129.56 83.4103C1129.59 83.6178 1129.48 83.7491 1129.47 83.7629C1129.44 83.7945 1129.42 83.8048 1129.44 83.7954C1129.46 83.7793 1129.52 83.7423 1129.65 83.6872L1129.24 82.7725C1129.09 82.8384 1128.97 82.9052 1128.87 82.9737C1128.82 83.0067 1128.76 83.0546 1128.7 83.1189C1128.66 83.1653 1128.54 83.3242 1128.57 83.5542C1128.61 83.827 1128.83 83.9411 1128.92 83.9753C1129.01 84.0115 1129.1 84.0167 1129.15 84.0174C1129.27 84.019 1129.39 83.999 1129.51 83.972L1129.28 82.9981ZM1129.87 82.4256C1129.79 82.4517 1129.71 82.4988 1129.66 82.5236C1129.6 82.5567 1129.54 82.5963 1129.48 82.633C1129.41 82.6713 1129.36 82.7059 1129.31 82.7347C1129.25 82.769 1129.24 82.7763 1129.24 82.7725L1129.65 83.6872C1129.7 83.6625 1129.77 83.6221 1129.82 83.5956C1129.87 83.5636 1129.94 83.5243 1129.99 83.4892C1130.06 83.4524 1130.11 83.4192 1130.16 83.3935C1130.18 83.3807 1130.2 83.3718 1130.21 83.3662C1130.22 83.3582 1130.21 83.3637 1130.19 83.3714L1129.87 82.4256Z" fill="#212121"/>
<path d="M127.802 71.8099C127.733 71.7215 127.673 71.6432 127.622 71.5758C127.673 71.5083 127.733 71.43 127.802 71.3416C128.063 71.0036 128.451 70.5189 128.951 69.9365C129.952 68.7709 131.399 67.2175 133.186 65.6654C136.775 62.5475 141.659 59.5 147 59.5C152.341 59.5 157.225 62.5475 160.814 65.6654C162.601 67.2175 164.048 68.7709 165.049 69.9365C165.549 70.5189 165.937 71.0036 166.198 71.3416C166.267 71.43 166.327 71.5083 166.378 71.5758C166.327 71.6432 166.267 71.7215 166.198 71.8099C165.937 72.1479 165.549 72.6326 165.049 73.215C164.048 74.3806 162.601 75.9341 160.814 77.4862C157.225 80.604 152.341 83.6515 147 83.6515C141.659 83.6515 136.775 80.604 133.186 77.4862C131.399 75.9341 129.952 74.3806 128.951 73.215C128.451 72.6326 128.063 72.1479 127.802 71.8099ZM147 81.2255C152.319 81.2255 156.628 76.904 156.628 71.5758C156.628 66.2475 152.319 61.926 147 61.926C141.681 61.926 137.372 66.2475 137.372 71.5758C137.372 76.904 141.681 81.2255 147 81.2255ZM151.731 71.5758C151.731 74.1964 149.612 76.3188 147 76.3188C144.388 76.3188 142.269 74.1964 142.269 71.5758C142.269 68.9552 144.388 66.8327 147 66.8327C149.612 66.8327 151.731 68.9552 151.731 71.5758Z" fill="#95B9FF" stroke="black"/>
<rect x="660.5" y="95.5" width="7" height="30" rx="3.5" fill="#27AE60" stroke="#333333"/>
<path d="M669.484 78.3385L669.339 78.4007L669.255 78.5356L662.815 88.9684L663.669 78.4532L663.735 77.6373L662.979 77.9509L650.987 82.9253L659.298 75.1824L660.285 74.2627L658.937 74.317L646.081 74.8343L655.814 71.1744L656.66 70.8564L655.941 70.3088L644.905 61.8968L656.833 63.8786L657.415 63.9753V63.3853V51.8365L661.679 63.5563L662.04 64.5495L662.579 63.6401L668.658 53.3773L666.509 64.7049L666.205 66.3076L667.355 65.1506L675.292 57.1647L669.255 66.9765L668.464 68.2614L669.866 67.703L679.551 63.8438L669.372 71.8547L668.237 72.7476H669.681H682.559L669.484 78.3385Z" fill="#27AE60" stroke="black"/>
<circle cx="909.5" cy="110.5" r="11" fill="white" stroke="black"/>
</g>
<rect x="1" y="1" width="1639" height="182" rx="40" stroke="#333333"/>
<defs>
<clipPath id="clip0_13_386">
<rect x="1" y="1" width="1639" height="182" rx="40" fill="white"/>
</clipPath>
</defs>
</svg>
