<svg width="24" height="24" viewBox="0 0 24 24" fill="none" xmlns="http://www.w3.org/2000/svg">
<path d="M19.6238 5.32626C18.1976 4.70163 16.6924 4.25622 15.146 4.00119C15.1319 3.99857 15.1173 4.00029 15.1043 4.00611C15.0913 4.01193 15.0805 4.02154 15.0736 4.03355C14.8811 4.36154 14.6666 4.78924 14.5163 5.12684C12.8493 4.88526 11.1537 4.88526 9.4867 5.12684C9.31939 4.75276 9.13058 4.38778 8.92113 4.03355C8.9139 4.02181 8.90312 4.01242 8.89019 4.00665C8.87726 4.00087 8.8628 3.99897 8.84871 4.00119C7.3022 4.25569 5.79697 4.70112 4.37093 5.32626C4.35885 5.33109 4.34862 5.33933 4.34159 5.34987C1.48901 9.41603 0.707116 13.3816 1.09119 17.2973C1.09212 17.307 1.09512 17.3165 1.10001 17.325C1.10489 17.3336 1.11156 17.3412 1.1196 17.3472C2.78018 18.5211 4.63777 19.4172 6.61303 19.9973C6.62695 20.0012 6.64177 20.0009 6.65552 19.9965C6.66927 19.9921 6.68131 19.9839 6.69003 19.9728C7.11467 19.4222 7.49057 18.8389 7.81383 18.2288C7.81833 18.2205 7.82093 18.2113 7.82146 18.2019C7.82198 18.1925 7.82042 18.1832 7.81687 18.1744C7.81331 18.1656 7.80786 18.1577 7.80086 18.1511C7.79386 18.1445 7.78547 18.1394 7.77624 18.1361C7.18357 17.9197 6.60979 17.6588 6.06029 17.3559C6.05022 17.3504 6.04174 17.3425 6.03562 17.3331C6.02949 17.3236 6.02591 17.3129 6.02518 17.3018C6.02446 17.2907 6.02661 17.2797 6.03146 17.2696C6.0363 17.2595 6.04369 17.2507 6.05296 17.244C6.16868 17.1614 6.28237 17.0762 6.39395 16.9886C6.40371 16.981 6.41548 16.9762 6.42794 16.9747C6.44041 16.9731 6.45307 16.9749 6.46453 16.9798C10.0651 18.548 13.9626 18.548 17.521 16.9798C17.5326 16.9747 17.5455 16.9728 17.5581 16.9744C17.5708 16.9759 17.5827 16.9809 17.5925 16.9886C17.7025 17.0743 17.818 17.1618 17.9345 17.244C17.9436 17.2506 17.951 17.2592 17.9558 17.2691C17.9607 17.279 17.963 17.29 17.9624 17.3009C17.9619 17.3118 17.9585 17.3225 17.9527 17.3319C17.9469 17.3414 17.9387 17.3493 17.929 17.355C17.3807 17.6608 16.8064 17.9218 16.2121 18.1352C16.2028 18.1386 16.1944 18.1438 16.1874 18.1505C16.1804 18.1572 16.175 18.1652 16.1714 18.174C16.1679 18.1828 16.1663 18.1923 16.1668 18.2017C16.1674 18.2112 16.17 18.2204 16.1745 18.2288C16.5045 18.8393 16.8821 19.4201 17.2974 19.9719C17.3059 19.9832 17.318 19.9916 17.3318 19.996C17.3456 20.0004 17.3605 20.0005 17.3744 19.9964C19.3529 19.4182 21.2135 18.5219 22.8761 17.3463C22.8841 17.3408 22.8909 17.3338 22.896 17.3257C22.9011 17.3175 22.9043 17.3085 22.9054 17.2991C23.3637 12.7711 22.1372 8.8379 19.6522 5.35162C19.6464 5.33987 19.6363 5.33141 19.6238 5.32626ZM8.3519 14.9122C7.26751 14.9122 6.3747 13.9632 6.3747 12.7965C6.3747 11.6306 7.25101 10.6807 8.3519 10.6807C9.46103 10.6807 10.3465 11.6393 10.3291 12.7974C10.3291 13.9632 9.45278 14.9122 8.3519 14.9122ZM15.6621 14.9122C14.5777 14.9122 13.6849 13.9632 13.6849 12.7965C13.6849 11.6306 14.5603 10.6807 15.6621 10.6807C16.7712 10.6807 17.6567 11.6393 17.6393 12.7974C17.6393 13.9632 16.7722 14.9122 15.6621 14.9122Z" fill="#95B9FF" stroke="black"/>
</svg>
