<svg width="19" height="19" viewBox="0 0 19 19" fill="none" xmlns="http://www.w3.org/2000/svg">
<path d="M19 9.5C19 14.7467 14.7467 19 9.5 19C4.25329 19 0 14.7467 0 9.5C0 4.25329 4.25329 0 9.5 0C14.7467 0 19 4.25329 19 9.5ZM1.95704 9.5C1.95704 13.6659 5.33414 17.043 9.5 17.043C13.6659 17.043 17.043 13.6659 17.043 9.5C17.043 5.33414 13.6659 1.95704 9.5 1.95704C5.33414 1.95704 1.95704 5.33414 1.95704 9.5Z" fill="#4F4F4F"/>
<path d="M8.52843 12.091V12.0262C8.53563 11.3389 8.6076 10.7919 8.74434 10.3853C8.88108 9.97867 9.0754 9.6494 9.32729 9.39751C9.57919 9.14562 9.88146 8.91351 10.2341 8.7012C10.4464 8.57166 10.6371 8.41872 10.8063 8.2424C10.9754 8.06247 11.1085 7.85556 11.2057 7.62166C11.3065 7.38776 11.3568 7.12867 11.3568 6.84438C11.3568 6.49173 11.2741 6.18586 11.1085 5.92677C10.943 5.66768 10.7217 5.46796 10.4446 5.32762C10.1675 5.18728 9.85987 5.11711 9.52161 5.11711C9.22654 5.11711 8.94226 5.17829 8.66877 5.30063C8.39529 5.42298 8.16678 5.6155 7.98326 5.87819C7.79974 6.14088 7.69358 6.48454 7.66479 6.90916H6.30457C6.33335 6.29742 6.49169 5.77384 6.77957 5.33842C7.07104 4.903 7.45428 4.57014 7.92928 4.33984C8.40788 4.10954 8.93866 3.99438 9.52161 3.99438C10.1549 3.99438 10.7055 4.12033 11.1733 4.37223C11.6447 4.62412 12.0082 4.96957 12.2637 5.40859C12.5227 5.8476 12.6523 6.34779 12.6523 6.90916C12.6523 7.30499 12.5911 7.66304 12.4688 7.98331C12.35 8.30357 12.1773 8.58965 11.9506 8.84154C11.7275 9.09344 11.4576 9.31654 11.1409 9.51086C10.8243 9.70878 10.5706 9.91749 10.3798 10.137C10.1891 10.3529 10.0506 10.6102 9.96423 10.9089C9.87786 11.2075 9.83108 11.58 9.82388 12.0262V12.091H8.52843ZM9.21934 15.2864C8.95305 15.2864 8.72455 15.1911 8.53383 15.0004C8.34311 14.8096 8.24775 14.5811 8.24775 14.3148C8.24775 14.0486 8.34311 13.82 8.53383 13.6293C8.72455 13.4386 8.95305 13.3432 9.21934 13.3432C9.48563 13.3432 9.71413 13.4386 9.90485 13.6293C10.0956 13.82 10.1909 14.0486 10.1909 14.3148C10.1909 14.4912 10.1459 14.6531 10.056 14.8006C9.96962 14.9482 9.85267 15.0669 9.70513 15.1569C9.56119 15.2432 9.39926 15.2864 9.21934 15.2864Z" fill="#4F4F4F"/>
</svg>
