<svg width="24" height="24" viewBox="0 0 24 24" fill="none" xmlns="http://www.w3.org/2000/svg">
<path d="M4.2927 20.3968C3.99351 17.4049 3.66441 10.6134 4.74148 7.38222C4.84055 7.1841 5.32014 6.8154 6.46694 6.48467C7.05187 6.31597 7.81039 6.15716 8.78054 6.03589L13.7171 6.93345L16.4098 7.831C16.709 10.2245 17.1278 16.0885 16.4098 20.3968C15.8114 20.9952 14.0761 22.1919 11.922 22.1919C10.2764 22.1919 6.44678 21.8329 4.2927 20.3968Z" fill="#FFDD64"/>
<path d="M4.74148 7.38222C3.66441 10.6134 3.99351 17.4049 4.2927 20.3968C6.44678 21.8329 10.2764 22.1919 11.922 22.1919C14.0761 22.1919 15.8114 20.9952 16.4098 20.3968C17.1278 16.0885 16.709 10.2245 16.4098 7.831M4.74148 7.38222L11.922 8.72855M4.74148 7.38222C4.84055 7.1841 5.32014 6.8154 6.46694 6.48467M16.4098 7.831L13.7171 6.93345L8.78054 6.03589C7.81039 6.15716 7.05187 6.31597 6.46694 6.48467M16.4098 7.831L14.6147 10.9724M16.4098 7.831L14.1659 8.27978M11.922 8.72855L14.6147 10.9724M11.922 8.72855L14.1659 8.27978M14.6147 10.9724L14.1659 8.27978M6.46694 6.48467L14.1659 8.27978" stroke="black"/>
<path d="M9.22925 21.1913C11.3456 21.1913 11.8747 9.62622 11.8747 9.62622C11.8747 9.62622 11.981 20.9592 11.8747 21.1913C11.7684 21.4234 9.22925 21.1913 9.22925 21.1913Z" fill="black"/>
<path d="M4.74146 14.114L8.48113 9.62622L7.58372 12.7677H10.7252L6.23738 19.0506L7.8829 14.114H4.74146Z" fill="black"/>
<path d="M13.963 2.57226L12.3707 6.48475L13.7171 6.93352C13.7171 6.93352 14.6146 3.3433 15.0634 3.3433C15.5122 3.3433 19.5512 5.58719 19.5512 5.58719L20 4.68963L19.9853 4.6815C18.6347 3.93114 16.0248 2.48121 15.3093 2.12348C14.5913 1.76446 14.1126 2.27308 13.963 2.57226Z" fill="black" stroke="black" stroke-width="0.5"/>
</svg>
