<svg width="20" height="27" viewBox="0 0 20 27" fill="none" xmlns="http://www.w3.org/2000/svg">
<path d="M12.5 25.5C9.16667 25.3333 2.2 24.6 1 23V9.5C1.42634 9.37819 2.0619 9.19851 2.77491 9C4.01303 8.6553 5.4847 8.25383 6.5 8L19 9.5V22C18.8333 23.3734 17.3 25.9962 12.5 25.5Z" fill="#010000"/>
<path d="M1 9.5L12.5 11.5M1 9.5C1 11.9 1 19.5 1 23C2.2 24.6 9.16667 25.3333 12.5 25.5M1 9.5C1.42634 9.37819 2.0619 9.19851 2.77491 9C4.01303 8.6553 5.4847 8.25383 6.5 8L19 9.5M12.5 11.5V25.5M12.5 11.5C14.3333 11.1667 18.2 10.3 19 9.5M12.5 25.5C17.3 25.9962 18.8333 23.3734 19 22V9.5" stroke="#95B9FF"/>
<path d="M10 23C11.5 22.5 11.3333 16 11.5 12.5V24L5 23C6 23 8.86158 23.3795 10 23Z" fill="#95B9FF"/>
<path d="M5 9.38184V6.15529C5 3.42835 7.40608 1.3281 10.108 1.69655V1.69655C12.3377 2.00059 14 3.90496 14 6.15528V10" stroke="black" stroke-width="3"/>
<path d="M3.5 16.5H4.5V18.5H3.5V16.5Z" fill="#95B9FF"/>
</svg>
