<svg width="40" height="67" viewBox="0 0 40 67" fill="none" xmlns="http://www.w3.org/2000/svg">
<rect x="16.5" y="36.5" width="7" height="30" rx="3.5" fill="#95B9FF" stroke="#333333"/>
<path d="M0.801582 12.8099C0.733106 12.7215 0.673241 12.6432 0.622229 12.5758C0.673241 12.5083 0.733106 12.43 0.801582 12.3416C1.06347 12.0036 1.45111 11.5189 1.95109 10.9365C2.95165 9.77089 4.39899 8.21746 6.18577 6.66535C9.77506 3.54748 14.6593 0.5 20 0.5C25.3407 0.5 30.225 3.54748 33.8143 6.66535C35.601 8.21746 37.0484 9.77089 38.0489 10.9365C38.5489 11.5189 38.9365 12.0036 39.1984 12.3416C39.2669 12.43 39.3268 12.5083 39.3778 12.5758C39.3268 12.6432 39.2669 12.7215 39.1984 12.8099C38.9365 13.1479 38.5489 13.6326 38.0489 14.215C37.0484 15.3806 35.601 16.9341 33.8143 18.4862C30.225 21.604 25.3407 24.6515 20 24.6515C14.6593 24.6515 9.77506 21.604 6.18577 18.4862C4.39899 16.9341 2.95165 15.3806 1.95109 14.215C1.45111 13.6326 1.06347 13.1479 0.801582 12.8099ZM20 22.2255C25.3187 22.2255 29.6281 17.904 29.6281 12.5758C29.6281 7.24752 25.3187 2.92604 20 2.92604C14.6813 2.92604 10.3718 7.24752 10.3718 12.5758C10.3718 17.904 14.6813 22.2255 20 22.2255ZM24.7308 12.5758C24.7308 15.1964 22.6117 17.3188 20 17.3188C17.3883 17.3188 15.2692 15.1964 15.2692 12.5758C15.2692 9.95516 17.3883 7.83271 20 7.83271C22.6117 7.83271 24.7308 9.95516 24.7308 12.5758Z" fill="#95B9FF" stroke="black"/>
</svg>
