<svg width="42" height="77" viewBox="0 0 42 77" fill="none" xmlns="http://www.w3.org/2000/svg">
<rect x="17.5" y="46.5" width="7" height="30" rx="3.5" fill="#27AE60" stroke="#333333"/>
<path d="M26.4842 29.3385L26.3385 29.4007L26.2553 29.5356L19.8154 39.9684L20.6685 29.4532L20.7347 28.6373L19.9786 28.9509L7.98683 33.9253L16.2982 26.1824L17.2855 25.2627L15.9373 25.317L3.0811 25.8343L12.8143 22.1744L13.6599 21.8564L12.9414 21.3088L1.90507 12.8968L13.8329 14.8786L14.4149 14.9753V14.3853V2.83654L18.6791 14.5563L19.0405 15.5495L19.5791 14.6401L25.6581 4.37734L23.5088 15.7049L23.2047 17.3076L24.3547 16.1506L32.2921 8.16467L26.2549 17.9765L25.4643 19.2614L26.8659 18.703L36.5513 14.8438L26.3716 22.8547L25.2369 23.7476H26.6808H39.559L26.4842 29.3385Z" fill="#27AE60" stroke="black"/>
</svg>
