<svg width="35" height="70" viewBox="0 0 35 70" fill="none" xmlns="http://www.w3.org/2000/svg">
<rect x="15.5" y="39.5" width="7" height="30" fill="#FFDD64" stroke="#333333"/>
<path d="M1.16448 29.7074C0.996354 29.245 0.811416 28.1606 1.41667 27.5217L2.80373 26.9333C3.47623 26.2608 5.27517 25.3529 6.41842 24.9158C7.84749 24.3694 14.9508 22.8563 17.6408 21.4272C20.3308 19.9981 24.4919 17.7705 26.047 12.9369C27.2912 9.07001 27.8964 8.5236 27.8964 8.5236C27.6442 7.13657 26.7868 4.04306 25.3745 2.76531C25.3885 2.345 25.5427 1.4035 26.047 1C26.2572 1.25219 26.8372 1.68091 27.4761 1.37828H27.8964L28.3167 1.75656L27.8964 2.17688C28.2747 3.61995 29.46 6.73307 31.1748 7.64094C33.3184 8.77579 35.1258 11.5919 33.1503 17.8966C31.0702 24.5352 23.315 29.1189 19.9525 30.2538C16.59 31.3886 9.52874 33.9525 3.30811 31.1364C2.34139 30.6321 2.27562 30.1809 1.71092 29.883C1.50601 29.7749 1.31667 29.7074 1.16448 29.7074Z" fill="#FFDD64"/>
<path d="M1.41667 27.5217C0.811416 28.1606 0.996354 29.245 1.16448 29.7074C1.31667 29.7074 1.50601 29.7749 1.71092 29.883M1.41667 27.5217L2.80373 26.9333C3.47623 26.2608 5.27517 25.3529 6.41842 24.9158C7.84749 24.3694 14.9508 22.8563 17.6408 21.4272C20.3308 19.9981 24.4919 17.7705 26.047 12.9369C27.2912 9.07001 27.8964 8.5236 27.8964 8.5236M1.41667 27.5217C1.64084 27.6899 2.04717 28.1942 1.87904 28.8667C1.71092 29.5392 1.69691 29.8245 1.71092 29.883M27.8964 8.5236C27.6442 7.13657 26.7868 4.04306 25.3745 2.76531C25.3885 2.345 25.5427 1.4035 26.047 1C26.2572 1.25219 26.8372 1.68091 27.4761 1.37828H27.8964L28.3167 1.75656L27.8964 2.17688C28.2747 3.61995 29.46 6.73307 31.1748 7.64094C33.3184 8.77579 35.1258 11.5919 33.1503 17.8966C31.0702 24.5352 23.315 29.1189 19.9525 30.2538C16.59 31.3886 9.52874 33.9525 3.30811 31.1364C2.34139 30.6321 2.27562 30.1809 1.71092 29.883M27.8964 8.5236C27.9805 8.29944 28.4512 7.80907 29.6617 7.64094M23.1469 23.4027C25.0227 22.45 28.9052 18.9894 30.1241 12.9369M9.10842 25.9245C10.1312 25.7844 11.9413 25.3529 13.3536 24.9158" stroke="#212121" stroke-linecap="round"/>
<path d="M32.0017 11.3771C32.0419 11.5032 32.086 11.4238 32.1771 11.2925C32.2215 11.2285 32.1938 11.0761 32.2115 11.0003C32.247 10.8474 32.1314 10.8152 32.0284 10.8986C31.8952 11.0065 31.9615 11.251 32.0017 11.3771Z" fill="#212121"/>
<path d="M32.1771 11.2925L31.7663 11.0074L32.1771 11.2925ZM32.0017 11.3771L31.5254 11.5289L31.5254 11.5289L32.0017 11.3771ZM32.0284 10.8986L32.3431 11.2871L32.3431 11.2871L32.0284 10.8986ZM32.2115 11.0003L32.6985 11.1135L32.6985 11.1135L32.2115 11.0003ZM31.7663 11.0074C31.7365 11.0504 31.7263 11.066 31.7138 11.083C31.6953 11.1082 31.7184 11.0701 31.7709 11.0309C31.8008 11.0085 31.8747 10.9591 31.986 10.9446C32.1162 10.9276 32.2384 10.9657 32.3295 11.0327C32.4062 11.0891 32.4435 11.1525 32.4566 11.1767C32.4717 11.2045 32.4778 11.2241 32.4781 11.2253L31.5254 11.5289C31.5358 11.5616 31.552 11.6063 31.5775 11.6534C31.6011 11.6968 31.6492 11.7737 31.7371 11.8384C31.8394 11.9136 31.9732 11.9548 32.1157 11.9361C32.2393 11.92 32.3262 11.8643 32.3698 11.8317C32.4496 11.772 32.5034 11.6973 32.52 11.6747C32.5427 11.6438 32.5721 11.6003 32.5878 11.5776L31.7663 11.0074ZM32.4781 11.2253C32.47 11.1999 32.4628 11.1753 32.4574 11.1516C32.4517 11.1271 32.4497 11.1112 32.4493 11.1036C32.4488 11.0941 32.4513 11.1109 32.4417 11.1433C32.4306 11.1808 32.4027 11.2389 32.3431 11.2871L31.7137 10.51C31.4569 10.718 31.443 11.0163 31.4508 11.1584C31.4595 11.3162 31.5034 11.4599 31.5254 11.5289L32.4781 11.2253ZM32.3431 11.2871C32.3282 11.2992 32.1793 11.4121 31.9673 11.317C31.8468 11.263 31.7688 11.1623 31.7362 11.0609C31.7076 10.9717 31.7202 10.9052 31.7244 10.8871L32.6985 11.1135C32.7385 10.9412 32.739 10.5671 32.3764 10.4045C32.0898 10.2761 31.8316 10.4145 31.7137 10.51L32.3431 11.2871ZM32.5878 11.5776C32.6611 11.4721 32.6835 11.365 32.6924 11.3098C32.7022 11.2488 32.7037 11.1923 32.7042 11.1584C32.7045 11.1403 32.7045 11.1224 32.7045 11.11C32.7046 11.0959 32.7046 11.0872 32.7048 11.0801C32.7052 11.0589 32.7065 11.0789 32.6985 11.1135L31.7244 10.8871C31.7152 10.9268 31.7109 10.9623 31.7087 10.9881C31.7063 11.0146 31.7054 11.0389 31.705 11.0577C31.7046 11.0766 31.7046 11.095 31.7045 11.1084C31.7045 11.1235 31.7045 11.1336 31.7044 11.1433C31.704 11.165 31.7031 11.1633 31.705 11.1513C31.7062 11.144 31.7093 11.1271 31.7169 11.1046C31.7245 11.0822 31.7389 11.0468 31.7663 11.0074L32.5878 11.5776Z" fill="#212121"/>
<path d="M32.6578 12.5782C32.672 12.8013 32.7632 12.6366 32.9405 12.3582C33.0012 12.2629 33.0269 11.9594 33.0699 11.8549C33.2156 11.5003 33.0517 11.465 32.8631 11.6694C32.6331 11.9187 32.6437 12.3551 32.6578 12.5782Z" fill="#212121"/>
<path d="M32.9405 12.3582L33.3623 12.6267L32.9405 12.3582ZM32.6578 12.5782L32.1588 12.6098L32.1588 12.6098L32.6578 12.5782ZM32.8631 11.6694L32.4956 11.3304L32.4956 11.3304L32.8631 11.6694ZM33.0699 11.8549L32.6074 11.6649L33.0699 11.8549ZM32.5187 12.0896C32.4704 12.1656 32.4369 12.2194 32.4061 12.2661C32.371 12.3194 32.3658 12.3218 32.3794 12.3078C32.382 12.3051 32.4311 12.2517 32.5215 12.2156C32.5734 12.1949 32.6541 12.1739 32.7528 12.1856C32.8569 12.1979 32.9454 12.2426 33.0113 12.2999C33.1223 12.3966 33.1484 12.5095 33.151 12.5197C33.158 12.5469 33.1577 12.5602 33.1568 12.5466L32.1588 12.6098C32.1615 12.6519 32.1672 12.7089 32.1825 12.7687C32.1935 12.8115 32.2304 12.946 32.3548 13.0543C32.4274 13.1174 32.5231 13.1654 32.6351 13.1786C32.7417 13.1912 32.831 13.1688 32.892 13.1444C33.0007 13.1011 33.0706 13.0314 33.0965 13.0047C33.1569 12.9426 33.2087 12.8656 33.2409 12.8167C33.2775 12.7612 33.322 12.69 33.3623 12.6267L32.5187 12.0896ZM33.1568 12.5466C33.1504 12.4446 33.147 12.3211 33.1638 12.2052C33.1815 12.0823 33.2138 12.0266 33.2305 12.0085L32.4956 11.3304C32.2823 11.5615 32.2049 11.8486 32.1741 12.062C32.1422 12.2824 32.1512 12.4887 32.1588 12.6098L33.1568 12.5466ZM33.2305 12.0085C33.253 11.9842 33.2518 11.9931 33.2199 12.0091C33.213 12.0126 33.0384 12.1027 32.836 11.9821C32.6174 11.8519 32.6256 11.6359 32.626 11.6258C32.6274 11.5935 32.6336 11.6011 32.6074 11.6649L33.5323 12.0449C33.579 11.9315 33.6193 11.8016 33.6251 11.6694C33.6299 11.5592 33.6126 11.2807 33.3477 11.123C33.0989 10.9748 32.8572 11.0722 32.771 11.1155C32.6599 11.1713 32.5675 11.2525 32.4956 11.3304L33.2305 12.0085ZM33.3623 12.6267C33.4214 12.5338 33.45 12.4329 33.4633 12.3831C33.4799 12.3211 33.4929 12.256 33.5028 12.2044C33.5142 12.1455 33.5211 12.1063 33.5293 12.0673C33.5388 12.0224 33.5408 12.0243 33.5323 12.0449L32.6074 11.6649C32.5774 11.7378 32.5601 11.8169 32.5508 11.8612C32.5402 11.9114 32.5289 11.9737 32.5208 12.0156C32.5114 12.0648 32.5039 12.0999 32.4972 12.125C32.494 12.1369 32.4926 12.1405 32.4934 12.1382C32.4935 12.1381 32.5007 12.118 32.5187 12.0896L33.3623 12.6267Z" fill="#212121"/>
<g style="mix-blend-mode:multiply">
<path d="M1.41667 27.5258C0.811416 28.1646 0.996354 29.249 1.16448 29.7114C1.31667 29.7114 1.50601 29.7789 1.71092 29.887C1.69691 29.8285 1.71092 29.5433 1.87904 28.8708C2.04717 28.1982 1.64084 27.6939 1.41667 27.5258Z" fill="#212121"/>
<path d="M1.16448 29.7114L0.694582 29.8823L0.814265 30.2114H1.16448V29.7114ZM1.41667 27.5258L1.71665 27.1257L1.36016 26.8584L1.05369 27.1819L1.41667 27.5258ZM1.87904 28.8708L2.36412 28.992V28.992L1.87904 28.8708ZM1.71092 29.887L1.47762 30.3293L2.45415 30.8444L2.19719 29.7707L1.71092 29.887ZM1.63438 29.5405C1.56842 29.3591 1.49348 29.0339 1.50045 28.695C1.50747 28.3539 1.5949 28.0646 1.77964 27.8696L1.05369 27.1819C0.63318 27.6258 0.510459 28.1982 0.500663 28.6745C0.490819 29.1531 0.592411 29.6013 0.694582 29.8823L1.63438 29.5405ZM1.11668 27.9258C1.24715 28.0236 1.49572 28.3425 1.39397 28.7495L2.36412 28.992C2.59862 28.054 2.03454 27.3641 1.71665 27.1257L1.11668 27.9258ZM1.94422 29.4448C1.72098 29.327 1.44234 29.2114 1.16448 29.2114V30.2114C1.19099 30.2114 1.29104 30.2308 1.47762 30.3293L1.94422 29.4448ZM1.39397 28.7495C1.30696 29.0975 1.25738 29.3549 1.23151 29.5398C1.21861 29.632 1.21095 29.7107 1.2081 29.7765C1.20596 29.8259 1.20361 29.9155 1.22465 30.0034L2.19719 29.7707C2.21123 29.8293 2.20537 29.8613 2.20717 29.8197C2.20826 29.7945 2.21199 29.7489 2.22186 29.6784C2.24152 29.5379 2.283 29.3165 2.36412 28.992L1.39397 28.7495Z" fill="#212121"/>
</g>
<path d="M21.5064 27.8362C21.7221 27.6506 21.472 27.7462 21.0286 27.8985C20.9308 27.9321 20.5405 28.188 20.4459 28.2299C19.8982 28.4718 20.0034 28.5758 20.3929 28.4851C20.8535 28.3778 21.2907 28.0217 21.5064 27.8362Z" fill="#212121"/>
<path d="M21.0286 27.8985L20.8662 27.4256L21.0286 27.8985ZM21.5064 27.8362L21.8324 28.2152L21.8324 28.2152L21.5064 27.8362ZM20.3929 28.4851L20.2795 27.9981L20.2795 27.9981L20.3929 28.4851ZM20.4459 28.2299L20.2438 27.7725L20.4459 28.2299ZM21.191 28.3714C21.4387 28.2863 21.5675 28.2408 21.6207 28.2293C21.637 28.2257 21.5966 28.2372 21.5342 28.2331C21.5067 28.2313 21.4103 28.2235 21.3078 28.1568C21.1713 28.068 21.0855 27.9148 21.0851 27.7475C21.0848 27.622 21.133 27.5351 21.147 27.5107C21.1662 27.4773 21.1842 27.4564 21.1891 27.4508C21.1995 27.4388 21.2009 27.4395 21.1804 27.4571L21.8324 28.2152C21.8659 28.1865 21.9066 28.1495 21.9429 28.1079C21.9608 28.0874 21.9883 28.0536 22.0138 28.0093C22.0342 27.9739 22.0855 27.8778 22.0851 27.7449C22.0847 27.5703 21.9957 27.4114 21.8532 27.3186C21.7446 27.248 21.6392 27.2379 21.5997 27.2353C21.5135 27.2296 21.4378 27.2457 21.4087 27.252C21.28 27.2799 21.0619 27.3584 20.8662 27.4256L21.191 28.3714ZM21.1804 27.4571C20.9592 27.6473 20.6063 27.922 20.2795 27.9981L20.5064 28.972C21.1007 28.8336 21.6221 28.3961 21.8324 28.2152L21.1804 27.4571ZM20.2795 27.9981C20.2004 28.0165 20.1652 28.0175 20.1667 28.0175C20.1691 28.0176 20.1788 28.0178 20.1938 28.0199C20.2077 28.022 20.236 28.027 20.2718 28.0406C20.3308 28.063 20.5263 28.1599 20.5628 28.4103C20.5929 28.6178 20.4799 28.7491 20.4683 28.7629C20.4416 28.7945 20.4232 28.8048 20.4368 28.7954C20.4601 28.7793 20.5233 28.7423 20.6479 28.6872L20.2438 27.7725C20.0946 27.8384 19.9656 27.9052 19.8668 27.9737C19.8193 28.0067 19.7574 28.0546 19.7032 28.1189C19.6642 28.1653 19.5397 28.3242 19.5732 28.5542C19.6129 28.827 19.8263 28.9411 19.9164 28.9753C20.0114 29.0115 20.1009 29.0167 20.153 29.0174C20.2667 29.019 20.3907 28.999 20.5064 28.972L20.2795 27.9981ZM20.8662 27.4256C20.7902 27.4517 20.7067 27.4988 20.6631 27.5236C20.6046 27.5567 20.5384 27.5963 20.4777 27.633C20.4142 27.6713 20.3574 27.7059 20.3086 27.7347C20.2506 27.769 20.2352 27.7763 20.2438 27.7725L20.6479 28.6872C20.7038 28.6625 20.7727 28.6221 20.8175 28.5956C20.8716 28.5636 20.9362 28.5243 20.9944 28.4892C21.0553 28.4524 21.1109 28.4192 21.1561 28.3935C21.1788 28.3807 21.1953 28.3718 21.2063 28.3662C21.222 28.3582 21.2133 28.3637 21.191 28.3714L20.8662 27.4256Z" fill="#212121"/>
</svg>
