<svg width="23" height="21" viewBox="0 0 23 21" fill="none" xmlns="http://www.w3.org/2000/svg">
<path d="M22.5 10.5C22.5 15.9453 18.3067 20.3498 13.1141 20.4962C13.1141 20.4962 13.1068 20.4964 13.0874 20.4965L13.0178 20.497L12.7921 20.4978C12.6103 20.4983 12.3755 20.4987 12.1406 20.499C11.6705 20.4997 11.2007 20.5 11.1538 20.5C5.83784 20.5 1.5 16.0388 1.5 10.5C1.5 4.96122 5.83784 0.5 11.1538 0.5C11.2007 0.5 11.6705 0.500332 12.1406 0.500995C12.3755 0.501326 12.6103 0.50174 12.7921 0.502235L13.0178 0.503037L13.0874 0.503475C13.1068 0.50364 13.1141 0.503774 13.1141 0.503774C18.3067 0.65022 22.5 5.05469 22.5 10.5Z" fill="#FFDD64" stroke="black"/>
<circle cx="10.5" cy="10.5" r="10" fill="#FFDD64" stroke="black"/>
<rect x="7" y="5" width="2" height="6" rx="1" fill="black"/>
<rect x="12" y="5" width="2" height="6" rx="1" fill="black"/>
<path d="M15 13.5C15 14.0909 14.8836 14.6761 14.6575 15.2221C14.4313 15.768 14.0998 16.2641 13.682 16.682C13.2641 17.0998 12.768 17.4313 12.2221 17.6575C11.6761 17.8836 11.0909 18 10.5 18C9.90905 18 9.32389 17.8836 8.77792 17.6575C8.23196 17.4313 7.73588 17.0998 7.31802 16.682C6.90016 16.2641 6.56869 15.768 6.34254 15.2221C6.1164 14.6761 6 14.0909 6 13.5L10.5 13.5H15Z" fill="black"/>
</svg>
