<svg width="24" height="24" viewBox="0 0 24 24" fill="none" xmlns="http://www.w3.org/2000/svg">
<path d="M21 4.89789C20.2645 5.21861 19.4744 5.43531 18.6438 5.53326C19.5008 5.0286 20.142 4.23432 20.4477 3.29863C19.6425 3.7693 18.7612 4.1006 17.8422 4.27812C17.2242 3.62877 16.4057 3.19836 15.5136 3.05374C14.6216 2.90911 13.706 3.05834 12.909 3.47828C12.1119 3.89821 11.4781 4.56535 11.1058 5.37611C10.7336 6.18688 10.6437 7.0959 10.8503 7.96206C9.2187 7.88144 7.62259 7.46412 6.16553 6.73718C4.70847 6.01023 3.42301 4.98991 2.39258 3.74244C2.04025 4.34053 1.83766 5.03398 1.83766 5.7725C1.83727 6.43734 2.00364 7.09199 2.32201 7.67838C2.64038 8.26477 3.10091 8.76476 3.66273 9.13398C3.01117 9.11358 2.37397 8.94032 1.80419 8.62863V8.68064C1.80413 9.6131 2.13189 10.5169 2.73186 11.2386C3.33184 11.9603 4.16707 12.4555 5.09583 12.6402C4.4914 12.8012 3.85769 12.8249 3.24258 12.7096C3.50462 13.5119 4.01506 14.2135 4.70243 14.7162C5.3898 15.2188 6.21969 15.4974 7.07593 15.5128C5.62242 16.6357 3.82735 17.2448 1.97948 17.2421C1.65215 17.2422 1.32509 17.2234 1 17.1858C2.87569 18.3726 5.05914 19.0024 7.28909 19C14.8378 19 18.9644 12.8474 18.9644 7.51132C18.9644 7.33796 18.96 7.16286 18.9521 6.9895C19.7548 6.41825 20.4476 5.71087 20.9982 4.90049L21 4.89789Z" fill="#95B9FF" stroke="black"/>
</svg>
